<svg xmlns="http://www.w3.org/2000/svg" viewBox="0 0 100 100"><title>sakai</title><metadata>Japanese Crest Himeji ken katabami.svg / Mukai / CC BY-SA 3.0. Original: https://commons.wikimedia.org/wiki/File:Japanese%20Crest%20Himeji%20ken%20katabami.svg. License: https://creativecommons.org/licenses/by-sa/3.0. Adapted: luminance mask removes background, monochrome, scaled. See ../sources.html.</metadata><g color="#B8B4AE"><defs><mask id="sakai-mask" maskUnits="userSpaceOnUse" maskContentUnits="userSpaceOnUse" x="0" y="0" width="100" height="100" mask-type="luminance"><g fill="black" transform="scale(0.14534883720930233)"><g ><path d="M 268.69481,622.37729 C 250.18194,618.84283 233.81373,610.08459 220.10966,596.3805 C 202.9122,579.18305 194.9235,561.37208 193.67789,537.45032 C 192.78034,520.21284 195.28845,507.95464 202.93239,492.21963 C 210.09374,477.47807 215.8278,470.99569 231.78191,459.60511 C 258.0208,440.87163 286.49388,414.83052 308.5533,389.39099 C 315.32558,381.58101 315.8734,381.22378 318.08806,383.17353 C 321.08829,385.81487 329.62608,390.0395 334.17194,391.13208 C 337.3324,391.8917 337.68535,392.5311 337.68535,397.49702 C 337.68535,400.5333 336.5355,407.51336 335.13014,413.00828 C 333.72478,418.5032 332.57926,423.91318 332.58454,425.03047 C 332.58983,426.14776 335.03836,429.46195 338.02571,432.39532 L 343.45727,437.72874 L 349.67724,431.85192 L 355.8972,425.97511 L 353.85623,419.49169 C 351.54574,412.15211 348.84526,394.78677 349.77934,393.27539 C 350.11826,392.72702 352.92831,391.56922 356.02389,390.7025 C 359.11948,389.83579 364.08689,387.51486 367.06256,385.54489 L 372.47289,381.9631 L 386.20649,397.48569 C 406.06622,419.93243 429.93004,441.24344 455.58847,459.4456 C 467.07846,467.59664 471.892,471.92682 476.16781,477.95845 C 490.49542,498.16948 496.54576,520.73241 493.62568,543.06227 C 488.95657,578.76666 464.81255,608.16934 431.30557,618.9559 C 417.86136,623.28385 398.42221,624.29604 384.31784,621.40251 C 373.37764,619.15812 356.81293,611.82267 348.65731,605.61075 L 343.65922,601.80386 L 333.96488,608.39147 C 319.55623,618.18258 306.57714,622.12999 287.22005,622.60827 C 278.78787,622.81662 270.45152,622.71268 268.69481,622.37729 z M 123.72725,510.81547 C 111.10116,501.80177 100.11823,493.35535 99.320725,492.04566 C 97.989237,489.85906 91.596221,431.83773 92.589038,430.95066 C 93.523462,430.11576 302.14614,365.09819 303.89067,365.09819 C 304.9107,365.09819 305.74528,365.82711 305.74528,366.71802 C 305.74528,367.60892 307.24145,370.53965 309.07009,373.23074 C 310.89874,375.92184 311.90485,378.56799 311.3059,379.1111 C 310.70694,379.65419 274.09639,413.23095 229.94909,453.72612 C 185.8018,494.22129 149.00685,527.32003 148.18253,527.27887 C 147.35821,527.23771 136.35334,519.82919 123.72725,510.81547 z M 456.79885,453.05962 L 375.96754,378.77332 L 378.15551,375.44916 C 379.35889,373.62087 381.15903,370.49797 382.15582,368.50937 C 383.53969,365.74856 384.61362,365.05993 386.69822,365.59667 C 395.64686,367.90073 593.98642,430.55833 594.63347,431.28564 C 595.0673,431.77331 594.09132,444.53312 592.46461,459.64077 C 590.83789,474.74842 589.47681,488.33866 589.43999,489.84131 C 589.38947,491.90267 583.49203,496.73526 565.41799,509.52578 C 552.24272,518.84959 540.60056,526.67341 539.54654,526.91205 C 538.43195,527.1644 503.81102,496.26518 456.79885,453.05962 z M 143.62594,401.94282 C 109.0033,396.99178 80.770828,373.29426 69.957378,340.10754 C 65.433738,326.2244 64.377274,306.76194 67.388852,292.78944 C 73.397592,264.91134 93.50794,239.97897 118.85075,228.9881 L 126.24213,225.78256 L 126.24213,208.244 C 126.24213,193.26848 126.67828,189.39851 129.22665,181.76223 C 134.61608,165.61262 140.65758,155.77583 152.39673,144.03668 C 169.59418,126.83922 187.40514,118.85054 211.32691,117.60493 C 239.25227,116.15085 264.31746,126.25198 283.08483,146.52297 C 297.65346,162.25885 303.65064,176.49601 305.73227,200.28746 C 308.35737,230.2906 315.92453,266.44813 325.50411,294.76167 C 327.9877,302.10223 330.01973,308.55532 330.01973,309.10189 C 330.01973,309.64846 328.15124,311.03727 325.86752,312.18811 C 323.58381,313.33896 318.98127,316.55268 315.63966,319.32971 L 309.56401,324.37887 L 305.41884,321.54923 C 303.139,319.99293 297.50784,315.05489 292.90516,310.57583 L 284.53665,302.43209 L 275.95623,304.68256 C 269.32027,306.42304 267.54558,307.3712 268.12496,308.86656 C 268.53698,309.92999 269.5108,313.54563 270.289,316.90131 C 271.44669,321.8933 272.30143,323.13233 274.99038,323.71642 C 281.86036,325.20869 294.90102,329.6071 299.67244,332.04131 C 304.31649,334.41053 304.5775,334.84142 303.6804,338.65786 C 303.15262,340.90312 302.68265,346.2855 302.63603,350.61873 C 302.58941,354.95195 302.19622,358.85236 301.76227,359.2863 C 301.32831,359.72022 297.30386,360.65139 292.81905,361.35554 C 265.10951,365.70615 220.30497,380.1284 189.80627,394.51457 C 180.27576,399.0101 173.89698,401.12598 166.97015,402.0894 C 156.19089,403.58866 155.08685,403.58173 143.62594,401.94282 z M 518.76391,402.04993 C 512.97665,401.26534 506.77922,399.1989 500.01774,395.79929 C 472.70246,382.06544 431.08906,368.30778 397.71141,361.97615 C 391.9464,360.88254 387.00562,359.98778 386.73191,359.98778 C 386.45819,359.98778 386.23424,356.10326 386.23424,351.35553 C 386.23424,346.60779 385.69678,340.84928 385.0399,338.55883 C 383.86704,334.4693 383.96153,334.33563 390.29344,331.12699 C 393.83978,329.32993 400.83325,326.82045 405.83449,325.55037 L 414.92764,323.24114 L 417.17241,315.74301 C 418.40705,311.61904 419.425,307.90795 419.43456,307.49614 C 419.4441,307.08433 415.93073,305.76842 411.62708,304.57191 L 403.80226,302.39641 L 395.97645,309.84728 C 387.24198,318.1633 380.87778,322.9373 378.52625,322.9373 C 377.66586,322.9373 374.71097,320.90371 371.95981,318.41821 C 369.20866,315.93269 364.9708,312.9516 362.54234,311.79356 C 360.1139,310.63551 358.12699,308.75252 358.12699,307.60911 C 358.12699,306.46571 359.87403,300.39178 362.00931,294.11151 C 371.79618,265.32646 382.40143,212.52297 382.40143,192.57929 C 382.40143,186.20759 387.49199,171.91117 393.30433,161.95939 C 395.97192,157.39196 402.80269,148.98967 408.4838,143.28764 C 417.07803,134.66178 420.85188,131.94212 430.95033,127.09694 C 447.40457,119.2023 459.4855,116.70233 476.81981,117.60493 C 491.93501,118.39197 501.60875,121.08916 515.9109,128.50417 C 528.11174,134.82973 544.95696,151.67493 551.28252,163.87579 C 560.05795,180.80197 561.6639,187.38529 561.95508,207.62601 L 562.21688,225.82418 L 572.28155,230.89299 C 590.53568,240.08619 603.3912,253.02863 612.31229,271.1944 C 619.24749,285.31634 621.59453,295.39691 621.68236,311.43888 C 621.77281,327.96089 619.52238,337.29975 611.52935,353.572 C 595.09789,387.02328 556.54282,407.17162 518.76391,402.04993 z M 336.84692,386.77818 C 307.50056,380.8967 296.49009,344.7922 317.49798,323.33095 C 340.77585,299.55069 381.4996,316.37172 381.4996,349.76696 C 381.4996,373.30138 359.71174,391.36065 336.84692,386.77818 z M 335.64548,307.03642 C 334.61463,304.20317 287.79264,92.612931 288.13591,92.338971 C 289.22394,91.470651 343.40772,67.416801 344.27567,67.416801 C 344.84548,67.416801 357.39387,72.955641 372.16098,79.725341 C 394.96223,90.178131 398.99881,92.441451 398.93424,94.737171 C 398.89242,96.223981 388.3749,144.80939 375.56196,202.70476 L 352.2657,307.96907 L 344.2006,308.1761 C 339.52177,308.29622 335.92974,307.8177 335.64548,307.03642 z" fill="#ffffff"></path></g></g></mask></defs><rect width="100" height="100" fill="currentColor" mask="url(#sakai-mask)"/></g></svg>