<svg xmlns="http://www.w3.org/2000/svg" viewBox="0 0 100 100"><title>uesugi</title><metadata>Japanese Crest Uesugi Sasa.svg / Mukai / CC BY-SA 3.0. Original: https://commons.wikimedia.org/wiki/File:Japanese%20Crest%20Uesugi%20Sasa.svg. License: https://creativecommons.org/licenses/by-sa/3.0. Adapted: background removed, monochrome, scaled. See ../sources.html.</metadata><g fill="#B8B4AE" color="#B8B4AE"><g transform="translate(0.0 0.0) scale(0.14534883720930233)"><path d="M 334.73276,621.99139 C 292.11691,620.10949 255.6856,610.79589 218.91135,592.38169 C 166.32889,566.05179 121.89085,521.64049 95.627244,469.17189 C 78.850965,435.65669 69.470885,401.83589 66.537345,364.28519 C 65.826105,355.18099 65.819615,332.52186 66.525685,323.58847 C 71.877095,255.88049 99.919584,194.70572 147.34552,147.27977 C 194.77292,99.852381 255.90558,71.828641 323.65421,66.458351 C 332.46877,65.759631 355.69435,65.768071 364.3509,66.473131 C 433.06052,72.069411 494.03694,100.25304 541.67772,148.43455 C 588.68814,195.97857 616.06792,256.07646 621.47543,323.58847 C 622.17898,332.37222 622.17374,355.5988 621.46625,364.28519 C 616.45762,425.78009 593.48651,480.66589 553.43043,526.84579 C 547.71616,533.43369 533.69321,547.45039 526.91159,553.35279 C 481.14183,593.18889 425.06867,616.72769 365.02918,621.30909 C 358.34945,621.81879 340.12065,622.22929 334.73276,621.99139 z M 363.22044,571.85049 C 407.30586,567.94179 446.6135,552.94049 481.46695,526.72309 C 511.98685,503.76539 537.29555,472.19399 552.49377,438.12039 C 566.19865,407.39469 572.58423,377.44459 572.57433,343.93681 C 572.56877,325.18559 570.97916,310.43566 567.09185,293.06595 C 560.27891,262.62371 546.32632,232.4027 527.42604,207.1507 C 506.24645,178.8534 478.01538,155.13582 447.09736,139.6647 C 419.71879,125.96469 392.55853,118.4256 361.1856,115.81749 C 354.09245,115.22782 334.2897,115.23142 326.57076,115.8238 C 285.29349,118.99153 246.18192,132.9807 212.41659,156.65372 C 191.6749,171.19582 172.18885,190.60601 157.38439,211.47171 C 133.27203,245.45616 119.09288,284.76407 115.88956,326.50501 C 115.28613,334.36798 115.29,353.58156 115.89657,361.36859 C 118.1872,390.77529 125.46146,417.67239 138.20886,443.86979 C 143.36536,454.46699 146.63871,460.20329 153.17503,470.09659 C 175.53555,503.94119 205.82132,530.71079 242.22516,548.80799 C 265.19291,560.22589 287.0867,566.94389 313.70613,570.74169 C 326.12069,572.51289 349.77495,573.04259 363.22044,571.85049 z M 330.66309,566.78319 C 329.54393,566.70119 325.37252,566.31939 321.39329,565.93489 C 284.6781,562.38699 247.47379,548.65569 216.93845,527.38269 C 209.73915,522.36719 198.52199,513.52959 200.68308,514.57569 C 202.31231,515.36439 209.59233,517.25519 212.9554,517.76319 C 217.71645,518.48229 227.1998,518.36629 232.12002,517.52879 C 237.40571,516.62899 244.83983,514.19529 249.1146,511.96519 L 252.35088,510.27679 L 257.15243,514.69139 C 269.21329,525.78029 280.38225,534.14379 294.71434,542.81859 C 301.42905,546.88279 320.99555,556.69009 322.38936,556.69009 C 322.89977,556.69009 323.54929,556.41059 323.83274,556.06909 C 324.39251,555.39459 324.05772,553.97699 323.33867,553.97699 C 322.52271,553.97699 306.54876,545.94869 300.81885,542.65889 C 286.15799,534.24129 270.7399,522.91469 257.94039,511.15909 L 255.08034,508.53229 L 257.931,506.49749 C 261.79765,503.73739 267.93566,497.48119 271.05244,493.12319 C 273.69271,489.43149 277.67114,481.88489 278.66237,478.68809 C 278.97083,477.69329 279.3815,476.70659 279.57499,476.49549 C 280.04004,475.98819 285.52095,479.74129 290.87077,484.23049 C 299.44475,491.42519 308.4951,501.90619 314.00288,511.01939 C 317.55533,516.89719 331.70431,544.03419 334.86815,551.03779 C 335.99165,553.52479 338.14015,558.15399 339.64259,561.32499 L 342.37429,567.09039 L 337.53611,567.01139 C 334.8751,566.96789 331.78225,566.86529 330.66309,566.78319 z M 346.03739,566.82269 C 346.03739,566.16729 358.66084,540.35599 362.27151,533.62859 C 364.47396,529.52499 367.74103,523.26429 369.53165,519.71579 C 377.93505,503.06279 389.49053,489.53969 404.54928,478.73549 C 406.49219,477.34159 408.22678,476.20109 408.40393,476.20109 C 408.58107,476.20109 409.0687,477.28819 409.48753,478.61689 C 410.63427,482.25479 414.40965,489.39149 417.34147,493.46339 C 420.26273,497.52069 427.92194,505.12869 431.12582,507.15559 L 433.22656,508.48459 L 430.20255,511.28439 C 412.58315,527.59729 390.70887,542.26399 369.77713,551.79959 C 367.04141,553.04579 364.63026,554.22859 364.41903,554.42789 C 363.77708,555.03359 364.57519,556.69009 365.509,556.69009 C 367.3576,556.69009 381.68678,549.76609 390.80583,544.46639 C 405.75028,535.78119 424.11074,522.05309 433.06609,512.86849 C 434.30025,511.60279 435.54951,510.56719 435.84223,510.56719 C 436.13493,510.56719 437.97394,511.35459 439.92889,512.31689 C 447.95305,516.26709 454.16318,517.75629 464.07907,518.10839 C 472.36419,518.40259 477.46068,517.80009 483.85042,515.77089 C 485.75128,515.16729 487.35653,514.72339 487.41762,514.78449 C 487.47872,514.84549 485.85957,516.23759 483.81954,517.87789 C 451.56228,543.81409 412.01773,560.50629 370.98631,565.50579 C 360.6906,566.76029 346.03739,567.53369 346.03739,566.82269 z M 329.98481,525.26929 C 324.75977,524.11339 325.04714,524.44099 323.9649,518.40509 C 320.48275,498.98429 320.40286,481.89059 323.70427,462.63549 C 324.62374,457.27279 327.25421,446.03949 327.70357,445.55659 C 327.80914,445.44319 333.14254,446.58119 334.78804,447.06829 C 335.45292,447.26519 335.462,447.56979 334.88509,450.32209 C 332.16541,463.29649 331.39646,481.04149 332.94687,495.04979 C 333.96271,504.22809 336.82283,517.95679 338.98221,524.01969 L 339.66668,525.94149 L 336.1823,525.90549 C 334.26589,525.88579 331.47702,525.59949 329.98481,525.26929 z M 348.96059,525.15019 C 349.12936,524.71489 349.8541,522.32399 350.57112,519.83699 C 355.07367,504.21969 357.05473,486.79189 356.07102,471.45309 C 355.5309,463.03129 354.69163,456.11449 353.54763,450.65699 C 353.14195,448.72159 353.05187,447.39749 353.31484,447.23489 C 353.90923,446.86759 360.53968,445.32459 360.68437,445.51989 C 361.15105,446.15009 363.82972,457.72869 364.74861,463.08769 C 366.9377,475.85449 367.62804,487.57839 366.85209,498.81039 C 366.118,509.43619 364.12371,522.37889 363.03867,523.55899 C 362.1587,524.51609 355.56728,525.94149 352.02118,525.94149 C 348.99866,525.94149 348.68518,525.86039 348.96059,525.15019 z M 216.26017,515.26469 C 212.82985,514.84169 205.54277,513.14719 202.50524,512.06619 C 200.74413,511.43949 197.48883,509.98099 195.27125,508.82509 C 191.86611,507.05029 190.3759,505.86419 185.68565,501.19569 C 180.14298,495.67869 171.946,486.46759 171.946,485.75619 C 171.946,485.46639 232.85189,435.80179 236.18108,433.37699 C 236.81928,432.91219 237.93262,433.68589 243.77221,438.65309 C 247.53599,441.85459 251.07693,444.84669 251.64097,445.30229 C 255.6691,448.55619 258.82699,455.47479 259.47679,462.46979 L 259.77645,465.69549 L 263.67984,467.37259 C 266.84254,468.73149 276.08775,473.54559 276.80451,474.20689 C 277.14824,474.52389 274.91456,480.09249 272.73971,484.34039 C 264.83591,499.77809 249.67747,511.09439 232.46183,514.40919 C 228.69727,515.13399 219.24751,515.63299 216.26017,515.26469 z M 318.92192,513.44269 C 317.24989,510.29089 311.81571,502.06769 309.37478,498.99569 L 307.18668,496.24189 L 307.62185,490.63029 C 308.42771,480.23859 310.57827,467.76279 313.30495,457.66149 C 314.2722,454.07819 317.9031,442.74899 318.19207,442.41259 C 318.50989,442.04269 324.33249,444.39449 324.33249,444.89279 C 324.33249,445.22969 323.73672,447.88439 323.00856,450.79209 C 321.24736,457.82489 320.01516,464.97539 319.09747,473.48799 C 318.17221,482.07089 318.41591,502.39449 319.53907,510.31439 C 319.92496,513.03549 320.18869,515.31389 320.12514,515.37739 C 320.06159,515.44099 319.52014,514.57029 318.92192,513.44269 z M 368.20985,514.86289 C 368.21717,514.36549 368.537,511.92369 368.92058,509.43669 C 370.04461,502.14879 370.29139,482.03229 369.35887,473.70839 C 368.42919,465.40969 366.80679,456.36149 365.06264,449.74819 C 364.34114,447.01249 363.88584,444.64819 364.05086,444.49429 C 364.21588,444.34039 365.63163,443.79109 367.19697,443.27369 L 370.04304,442.33299 L 370.5165,443.55359 C 373.53534,451.33619 377.0683,464.77749 378.80052,475.07059 C 379.747,480.69469 380.84608,490.81749 380.85132,493.95899 C 380.85538,496.39289 380.70812,496.75869 378.66651,499.38529 C 375.60486,503.32419 372.88241,507.43229 370.35739,511.92369 C 369.16893,514.03769 368.20253,515.36029 368.20985,514.86289 z M 459.62807,515.04239 C 440.98643,512.52469 424.91292,501.64759 416.01544,485.52919 C 414.01105,481.89819 411.82457,476.80919 411.52991,475.08939 C 411.40807,474.37819 412.31335,473.68929 416.12614,471.59179 C 418.73751,470.15519 422.63251,468.24469 424.78171,467.34619 L 428.68934,465.71259 L 429.00171,462.37909 C 429.53912,456.64419 431.17387,451.98429 433.90163,448.41189 C 435.13854,446.79199 440.78345,441.83229 450.48057,433.84539 L 451.67131,432.86459 L 483.97826,459.10239 C 501.74706,473.53309 516.22545,485.54879 516.15243,485.80389 C 515.94207,486.53839 508.53722,494.90859 502.83516,500.85719 C 498.13713,505.75839 497.1818,506.52469 493.1621,508.61559 C 487.80026,511.40479 482.1749,513.43179 477.08695,514.40789 C 472.34592,515.31759 463.92994,515.62339 459.62807,515.04239 z M 300.59276,489.10959 C 298.60314,487.08539 295.38409,484.11599 293.43931,482.51089 C 289.90683,479.59529 289.90362,479.59069 290.17958,477.78369 C 290.76662,473.93979 295.10113,462.12219 298.30642,455.62659 C 300.1473,451.89609 303.30298,446.35159 305.31906,443.30549 L 308.98465,437.76729 L 312.13672,439.35459 C 313.87035,440.22769 315.28878,441.07549 315.28878,441.23879 C 315.28878,441.40199 314.38125,444.31239 313.27204,447.70629 C 308.77319,461.47169 304.88852,481.25489 304.88852,490.40039 C 304.88852,491.51469 304.7359,492.50819 304.54938,492.60809 C 304.36285,492.70809 302.58237,491.13369 300.59276,489.10959 z M 383.56878,490.46219 C 383.56878,487.35489 381.91828,475.26139 380.63503,468.96609 C 379.12029,461.53519 376.79379,452.80489 374.59906,446.31569 L 372.82639,441.07449 L 376.08547,439.46179 L 379.34455,437.84919 L 382.86152,443.12039 C 387.63929,450.28139 392.99175,461.31239 395.73143,469.64439 C 399.03761,479.69919 399.02321,479.21509 396.0839,481.49629 C 394.73467,482.54339 391.49106,485.44309 388.87586,487.93999 C 386.26066,490.43679 383.99672,492.47979 383.84487,492.47979 C 383.69302,492.47979 383.56878,491.57189 383.56878,490.46219 z M 165.42966,477.79889 C 158.30104,468.30799 153.21961,460.08009 152.15532,456.30489 C 150.26851,449.61199 150.01711,447.62229 150.04141,439.57409 C 150.0626,432.55259 150.20191,431.11179 151.27755,426.78899 C 155.56925,409.54139 166.29568,395.99289 181.87394,388.14289 C 183.97683,387.08319 185.88002,386.21619 186.10324,386.21619 C 186.32646,386.21619 189.89648,389.52649 194.03662,393.57249 C 205.69901,404.96959 219.2395,417.50049 229.52452,426.41419 L 234.42345,430.65999 L 233.3681,431.67999 C 231.40398,433.57829 170.10346,482.98389 169.71228,482.98389 C 169.49879,482.98389 167.57162,480.65059 165.42966,477.79889 z M 491.64113,461.43469 C 477.09206,449.62759 462.65735,437.90989 459.564,435.39559 L 453.93976,430.82409 L 456.82805,428.30319 C 464.08409,421.97039 480.49851,406.94999 488.92801,398.92949 C 494.02641,394.07839 499.13325,389.22079 500.27665,388.13479 L 502.35548,386.16009 L 506.68167,388.37639 C 522.87353,396.67129 534.04203,411.52779 537.62008,429.53109 C 538.65843,434.75569 538.6375,445.17749 537.57861,450.20039 C 536.14944,456.97959 535.08441,459.44859 530.69611,466.15509 C 526.20948,473.01199 518.87825,483.01119 518.38749,482.94309 C 518.22606,482.92069 506.19019,473.24189 491.64113,461.43469 z M 283.34984,474.89729 C 281.3273,473.50039 278.62629,471.74009 277.34762,470.98549 L 275.02274,469.61349 L 278.45199,463.84199 C 284.14503,454.26059 294.80256,440.95149 300.55959,436.23399 C 302.51783,434.62939 302.76126,434.54569 303.98908,435.05419 C 306.41386,436.05859 306.36767,436.36249 303.02616,441.38899 C 297.14859,450.23029 291.49476,462.43869 288.59779,472.54449 C 287.85356,475.14069 287.19571,477.30359 287.13592,477.35089 C 287.07612,477.39829 285.37238,476.29409 283.34984,474.89729 z M 400.75183,476.48549 C 400.75183,475.18569 397.62135,465.78869 395.36499,460.31539 C 392.71866,453.89609 388.88904,446.77989 384.86632,440.80669 C 381.93483,436.45379 381.91602,436.11139 384.54862,435.02089 L 385.95066,434.44019 L 391.446,440.05939 C 397.87741,446.63569 401.82683,451.46679 406.3904,458.33979 C 409.47624,462.98719 412.96084,468.92519 412.96084,469.53609 C 412.96084,469.68399 411.68907,470.56819 410.13468,471.50109 C 408.58029,472.43389 406.06178,474.07649 404.53798,475.15129 C 401.62887,477.20319 400.75183,477.51219 400.75183,476.48549 z M 267.35713,465.77079 L 262.60918,463.56629 L 262.34691,461.40519 C 262.20266,460.21659 261.92978,458.50299 261.7405,457.59719 L 261.39637,455.95029 L 266.75072,452.30459 C 274.454,447.05959 280.67825,441.94839 288.16206,434.72229 L 294.72316,428.38699 L 297.30443,430.38099 L 299.8857,432.37489 L 295.62866,436.65969 C 290.40369,441.91879 284.98979,448.36189 281.25357,453.76759 C 278.24987,458.11339 272.78335,467.10749 272.78335,467.70369 C 272.78335,468.25369 272.44534,468.13329 267.35713,465.77079 z M 414.29763,465.23559 C 412.21726,461.32199 405.06648,450.76189 401.61215,446.50199 C 400.03487,444.55689 396.43721,440.59669 393.61737,437.70159 L 388.49037,432.43769 L 391.11393,430.41099 L 393.73749,428.38439 L 400.87863,435.31779 C 408.04111,442.27199 415.62219,448.44859 423.03975,453.37339 C 425.99219,455.33359 426.93976,456.19509 426.72479,456.72369 C 426.56563,457.11519 426.21417,458.82229 425.94377,460.51759 L 425.45214,463.59979 L 420.72244,465.83079 C 418.12111,467.05779 415.94937,468.06169 415.89635,468.06169 C 415.84333,468.06169 415.12391,466.78999 414.29763,465.23559 z M 259.42106,451.25449 C 259.00184,450.42599 258.15067,449.06969 257.52957,448.24039 C 256.90847,447.41099 256.5764,446.57399 256.79163,446.38019 C 257.00686,446.18649 258.81082,444.94879 260.80044,443.62989 C 267.00575,439.51629 273.90463,433.86619 280.41249,427.56779 L 286.67596,421.50599 L 289.3386,423.97579 L 292.00123,426.44559 L 285.58213,432.76029 C 278.99665,439.23849 271.18024,445.74549 264.98174,449.90949 C 260.32904,453.03509 260.3229,453.03659 259.42106,451.25449 z M 423.10907,449.63519 C 414.66625,443.90589 407.08467,437.48349 399.86848,429.94799 L 396.4981,426.42839 L 399.05687,423.86969 L 401.61565,421.31089 L 407.85347,427.40849 C 414.62281,434.02549 420.67029,439.03029 427.49608,443.66409 L 431.85715,446.62469 L 430.59669,448.31519 C 429.90343,449.24499 429.0863,450.60909 428.78083,451.34659 C 428.47536,452.08399 428.08627,452.68739 427.91619,452.68739 C 427.74612,452.68739 425.58291,451.31389 423.10907,449.63519 z M 143.5726,441.94789 C 139.10456,432.68699 136.97849,427.67539 134.02746,419.44819 C 127.91298,402.40149 123.87083,384.51969 121.96685,366.09389 C 121.10921,357.79397 120.60151,339.33062 121.05108,332.7902 C 121.37653,328.0557 121.40249,327.96953 122.58519,327.69848 C 125.28767,327.07913 142.09127,326.875 148.20626,327.38724 C 155.51828,327.99974 166.29628,329.72409 172.17209,331.22149 C 175.64713,332.10708 176.2212,332.38501 176.10108,333.12367 C 176.0237,333.59945 175.84548,337.87448 175.70503,342.62373 C 175.39892,352.97459 175.99662,360.60129 177.80134,369.37319 C 179.18526,376.09969 180.10752,378.67329 182.29617,381.91629 L 183.62833,383.89019 L 180.38723,385.43839 C 178.60463,386.28989 175.43918,388.13389 173.35291,389.53619 L 169.55969,392.08579 L 166.34404,389.09299 C 154.84225,378.38819 144.33933,364.88799 136.52682,350.7667 C 133.91804,346.05125 132.7318,343.54454 128.96156,334.78006 C 128.10722,332.79399 126.72746,332.15324 126.72746,333.74255 C 126.72746,335.23035 130.67637,344.94942 133.90092,351.39787 C 140.96558,365.52579 149.27692,376.86699 160.93561,388.28809 L 166.97421,394.20359 L 163.54495,397.76909 C 159.86659,401.59349 155.61053,407.61619 153.19492,412.41539 C 148.36542,422.01029 145.87655,435.24319 146.98121,445.45249 C 147.20995,447.56639 147.35876,449.34679 147.31193,449.40899 C 147.26509,449.47109 145.58239,446.11359 143.5726,441.94789 z M 541.31584,441.64269 C 541.50833,433.29099 540.7176,427.51459 538.45717,420.75939 C 535.53279,412.02009 531.20125,404.79509 524.82598,398.02269 C 521.06696,394.02939 521.0481,393.99749 522.05458,393.33109 C 523.69185,392.24699 532.15248,383.63369 536.15012,378.98119 C 543.69393,370.20159 549.58427,361.18489 554.90808,350.26741 C 559.44427,340.96499 562.09575,333.94761 561.35448,333.20634 C 560.55361,332.40549 559.86457,333.3767 557.91226,338.0584 C 552.41414,351.24298 543.47235,365.54639 533.4602,377.17249 C 528.27755,383.19049 518.84768,392.19289 518.17831,391.76179 C 517.88321,391.57169 516.21741,390.47549 514.47649,389.32559 C 512.73558,388.17579 509.81586,386.48439 507.98822,385.56699 C 504.94967,384.04169 504.72281,383.83359 505.33737,383.13579 C 507.82557,380.31039 510.26235,372.53099 511.84816,362.35019 C 512.66373,357.11429 512.95475,340.53949 512.32644,335.10819 L 511.98518,332.15797 L 517.30048,330.93346 C 530.34481,327.9284 542.29758,326.73395 555.39929,327.12622 C 560.49768,327.27886 565.09903,327.5283 565.62451,327.68052 C 566.90583,328.05169 567.1496,330.83043 567.14991,345.06727 C 567.15055,378.89869 558.99109,413.07809 543.59214,443.74899 L 541.15545,448.60229 L 541.31584,441.64269 z M 351.73224,443.06499 C 351.35807,441.19419 351.64127,441.08369 352.76514,442.66199 C 353.67923,443.94579 353.68263,444.00139 352.86014,444.21649 C 352.19787,444.38969 351.94567,444.13219 351.73224,443.06499 z M 251.44812,441.59089 L 248.87859,439.10409 L 253.03077,436.32269 C 261.99543,430.31759 269.87731,423.75339 276.10636,417.10489 C 277.80967,415.28689 279.3414,413.79949 279.51021,413.79949 C 279.67902,413.79949 280.87402,415.00009 282.16576,416.46769 L 284.51438,419.13579 L 279.21054,424.49399 C 276.29342,427.44089 271.46649,431.80219 268.48403,434.18579 C 263.18508,438.42059 255.08439,444.10499 254.37414,444.08679 C 254.17807,444.08179 252.86137,442.95859 251.44812,441.59089 z M 334.73276,443.82199 C 334.73276,443.67139 335.27809,442.90829 335.9446,442.12629 C 336.61112,441.34429 337.01808,441.07729 336.84897,441.53279 C 336.67986,441.98839 336.5415,442.75139 336.5415,443.22849 C 336.5415,443.79439 336.22719,444.09589 335.63713,444.09589 C 335.13972,444.09589 334.73276,443.97269 334.73276,443.82199 z M 429.72513,441.55039 C 423.30536,437.25229 417.55288,432.56189 410.58686,425.94559 C 406.91851,422.46149 403.9175,419.47329 403.91795,419.30519 C 403.9184,419.13709 405.02757,417.77869 406.38277,416.28649 L 408.84679,413.57339 L 411.74553,416.73869 C 417.40684,422.92059 427.16467,431.03729 435.23984,436.28149 L 439.65752,439.15049 L 436.74283,441.62319 C 435.13974,442.98319 433.76042,444.09589 433.67768,444.09589 C 433.59493,444.09589 431.81628,442.95039 429.72513,441.55039 z M 329.13116,442.79279 C 328.36525,442.49219 328.49018,442.21819 330.34663,440.12789 C 333.15363,436.96739 335.80646,432.98949 337.72986,429.05669 L 339.33122,425.78239 L 339.02908,428.94769 C 338.69199,432.47909 337.22669,435.56109 333.57539,440.41839 C 331.5386,443.12789 330.88043,443.47959 329.13116,442.79279 z M 354.89327,440.63379 C 351.71074,436.58339 349.6233,432.29119 349.36569,429.26789 L 349.14577,426.68679 L 351.09788,430.30429 C 353.54204,434.83349 355.60923,437.83779 358.17646,440.59149 C 359.27904,441.77409 359.89709,442.74209 359.55179,442.74549 C 359.20688,442.74889 358.48476,442.86969 357.94709,443.01389 C 357.15566,443.22619 356.57415,442.77299 354.89327,440.63379 z M 323.75565,441.06889 C 323.11177,440.90119 323.58329,440.18459 326.13577,437.45139 C 331.95778,431.21729 336.62377,423.11289 338.97818,415.14549 L 340.11085,411.31249 L 340.12599,414.02559 C 340.15205,418.69429 336.9232,426.45419 332.17856,433.12559 C 330.02032,436.16029 325.32498,441.41629 324.84902,441.33039 C 324.68928,441.30149 324.19726,441.18379 323.75565,441.06889 z M 360.39456,438.27109 C 353.32147,430.77319 347.77638,419.47729 347.89859,412.81539 C 347.92744,411.24269 348.04342,410.36289 348.15633,410.86029 C 350.42864,420.87059 355.37215,430.22379 362.12822,437.29529 C 364.03845,439.29469 365.38752,440.93059 365.12616,440.93059 C 364.8648,440.93059 364.36227,441.04139 364.00942,441.17679 C 363.61193,441.32929 362.2368,440.22389 360.39456,438.27109 z M 318.06558,438.95049 L 316.9988,438.35889 L 319.15602,436.59249 C 321.88349,434.35909 326.7472,428.75749 329.41538,424.77659 C 333.95457,418.00419 337.70373,408.64589 338.88475,401.14019 C 339.40515,397.83299 339.50619,397.59009 339.79976,398.94119 C 340.26645,401.08899 339.06004,407.71329 337.17616,413.34729 C 335.34036,418.83749 332.63226,424.13819 329.13641,429.08379 C 326.48965,432.82829 320.32585,439.58819 319.58454,439.55949 C 319.33584,439.54989 318.65231,439.27579 318.06558,438.95049 z M 364.65434,435.70309 C 356.81847,427.32789 351.42067,416.99619 349.20778,406.13729 C 348.27762,401.57289 347.98945,397.14629 348.70572,398.42519 C 348.91466,398.79819 349.34695,400.52789 349.66636,402.26879 C 351.77003,413.73459 357.81369,425.05769 366.61207,434.01749 L 371.16148,438.65029 L 369.8366,439.11219 C 369.10791,439.36619 368.45869,439.57409 368.39388,439.57409 C 368.32907,439.57409 366.64628,437.83209 364.65434,435.70309 z M 243.40859,434.58119 L 240.50043,431.97199 L 242.67368,430.68599 C 251.5701,425.42129 261.00122,417.89989 268.43382,410.14189 L 273.57099,404.77979 L 275.7229,408.01599 L 277.87481,411.25209 L 271.29814,417.66159 C 263.59325,425.17059 256.45752,430.83559 248.13237,436.05259 L 246.31675,437.19039 L 243.40859,434.58119 z M 436.88465,433.76799 C 434.0389,431.86289 430.69674,429.53389 429.45762,428.59229 C 425.62936,425.68339 417.88339,418.72899 414.16838,414.86559 L 410.62797,411.18369 L 412.74398,408.00149 L 414.85999,404.81929 L 417.62793,407.83979 C 425.29071,416.20169 434.24983,423.65809 443.37031,429.26459 C 445.79515,430.75509 447.77912,432.02049 447.77912,432.07659 C 447.77912,432.13259 446.49203,433.31549 444.91894,434.70519 L 442.05875,437.23189 L 436.88465,433.76799 z M 312.40616,436.27989 C 311.68256,435.75079 311.85972,435.46229 314.39025,433.04859 C 327.77505,420.28169 335.38655,404.14239 336.82192,385.48489 L 337.16572,381.01599 L 337.77351,383.50309 C 338.84457,387.88569 337.60155,397.72219 334.94129,405.91549 C 331.5561,416.34149 323.52447,428.82649 316.26439,434.94829 C 313.7686,437.05269 313.561,437.12439 312.40616,436.27989 z M 369.39575,432.32079 C 364.08497,426.73539 360.65756,421.90299 357.31005,415.28089 C 351.67935,404.14199 348.9736,390.62939 350.72055,382.37259 L 351.29459,379.65949 L 351.6064,384.63349 C 352.76331,403.08839 360.10312,419.43749 372.85643,431.96689 C 376.53918,435.58499 376.77952,435.92819 375.94341,436.37569 C 375.44473,436.64249 374.73881,436.86099 374.37471,436.86099 C 374.0106,436.86099 371.77007,434.81779 369.39575,432.32079 z M 307.52666,433.68069 C 306.89148,433.30999 307.60111,432.40849 312.05365,427.92909 C 321.82726,418.09669 327.5678,407.33449 330.29788,393.72529 C 331.41539,388.15459 331.55625,376.08489 330.56217,371.07949 C 329.95184,368.00629 329.96392,367.87549 331.03496,365.95919 C 331.63948,364.87759 332.30295,364.16149 332.50932,364.36789 C 333.31928,365.17779 334.27689,373.59019 334.27576,379.88559 C 334.27235,398.81459 327.14882,415.92559 313.6537,429.42079 C 311.05381,432.02059 308.78112,434.14159 308.60327,434.13399 C 308.42542,434.12649 307.94095,433.92249 307.52666,433.68069 z M 374.54101,429.28679 C 363.64333,418.19309 357.38248,405.80409 354.83923,390.30099 C 354.21609,386.50259 354.11432,383.91379 354.32365,377.18759 C 354.46711,372.57829 354.85629,367.59049 355.18851,366.10349 L 355.79255,363.40009 L 357.05782,365.65139 C 358.27574,367.81839 358.30564,368.02109 357.85705,371.06789 C 356.66002,379.19829 356.88179,388.00419 358.47143,395.46269 C 361.36066,409.01869 369.20125,422.29329 379.64051,431.30309 C 381.67434,433.05839 381.75765,433.21289 380.91375,433.66449 C 380.4171,433.93029 379.85445,434.14779 379.66342,434.14779 C 379.47238,434.14779 377.16729,431.96039 374.54101,429.28679 z M 300.64957,429.06599 L 297.54108,426.75759 L 298.84083,425.86379 C 301.3141,424.16299 309.66961,415.37029 311.59443,412.44289 C 317.3586,403.67629 320.70068,392.94599 320.72875,383.11549 L 320.74249,378.30289 L 324.1073,374.82089 C 326.24823,372.60539 327.58926,371.52839 327.79419,371.85999 C 327.97133,372.14659 328.20611,375.66449 328.31593,379.67759 C 328.46652,385.18069 328.32944,388.07569 327.75816,391.45609 C 325.42008,405.29139 318.56248,418.08579 308.4048,427.56419 C 306.12343,429.69299 304.14462,431.42109 304.00745,431.40449 C 303.87028,431.38789 302.35924,430.33559 300.64957,429.06599 z M 381.58933,429.07929 C 370.34517,419.16859 363.31819,406.61309 360.76323,391.86849 C 360.04059,387.69819 359.82978,378.55689 360.34298,373.64679 L 360.63083,370.89279 L 362.26477,372.83049 C 363.16344,373.89619 364.76352,375.53619 365.82051,376.47509 L 367.74229,378.18209 L 367.74229,383.05509 C 367.74229,398.09109 375.39805,414.31669 386.9762,423.81949 C 388.83265,425.34319 390.35157,426.72729 390.35157,426.89539 C 390.35157,427.15429 384.67462,431.44679 384.35668,431.42829 C 384.29639,431.42479 383.05109,430.36779 381.58933,429.07929 z M 448.68349,429.03099 C 438.22602,422.92279 427.47748,414.23919 419.71233,405.62539 L 416.53538,402.10129 L 418.49948,398.48619 L 420.46358,394.87109 L 422.70367,397.64559 C 430.07188,406.77189 442.37612,416.98059 453.29259,423.02519 L 456.31902,424.70089 L 454.42305,426.35009 C 453.38026,427.25709 452.01836,428.43939 451.3966,428.97729 L 450.26614,429.95539 L 448.68349,429.03099 z M 234.88885,427.18279 L 232.15071,424.73959 L 237.25237,421.70399 C 240.05828,420.03439 244.53192,417.04549 247.19379,415.06199 C 252.63559,411.00719 262.1463,402.02229 265.62685,397.64829 L 267.9295,394.75449 L 269.8517,398.28549 L 271.77391,401.81659 L 270.82678,403.15069 C 269.18693,405.46049 259.60791,414.80949 255.6003,418.01149 C 249.71444,422.71409 239.27296,429.62599 238.05465,429.62599 C 237.81943,429.62599 236.39482,428.52649 234.88885,427.18279 z M 292.10813,422.26029 C 290.67471,420.96429 289.50468,419.77049 289.50806,419.60729 C 289.51144,419.44409 290.56765,418.55369 291.85519,417.62869 C 301.35438,410.80419 308.38516,398.95059 309.67006,387.59349 L 309.98465,384.81299 L 312.29124,383.64419 C 313.55988,383.00129 315.38643,381.97749 316.35025,381.36899 L 318.10266,380.26279 L 317.80032,384.03079 C 316.78491,396.68559 312.87145,406.50519 305.21562,415.60819 C 302.70959,418.58799 295.81812,424.68259 295.00945,424.63429 C 294.84714,424.62459 293.54155,423.55629 292.10813,422.26029 z M 390.57766,422.77269 C 387.17379,420.03109 385.54312,418.40989 382.68894,414.92999 C 375.30145,405.92269 371.66405,396.57679 370.6552,384.01059 L 370.35108,380.22249 L 372.32503,381.57479 C 373.4107,382.31859 375.16053,383.36439 376.21354,383.89889 C 377.41648,384.50939 378.19995,385.24669 378.32142,385.88249 C 378.42775,386.43909 378.74671,388.29739 379.03022,390.01219 C 379.95508,395.60599 382.69338,402.20059 386.1475,407.15269 C 388.41183,410.39899 394.2061,416.26679 396.79521,417.93559 C 397.97654,418.69699 398.94309,419.47179 398.94309,419.65719 C 398.94309,420.10809 393.6909,424.65989 393.21343,424.62279 C 393.00726,424.60679 391.82117,423.77429 390.57766,422.77269 z M 348.7862,422.54099 C 348.76657,422.25049 348.6334,421.63999 348.49027,421.18449 C 348.2429,420.39709 348.25566,420.39609 348.74837,421.16449 C 349.03345,421.60909 349.16662,422.21959 349.0443,422.52109 C 348.88378,422.91669 348.81197,422.92229 348.7862,422.54099 z M 226.56423,419.79719 L 223.6095,417.20349 L 228.50139,414.62769 C 239.56649,408.80159 248.66772,401.42689 258.09466,390.64829 L 260.34825,388.07159 L 262.97858,388.55059 C 265.13121,388.94259 265.68554,389.23109 266.03083,390.13929 C 266.26289,390.74969 266.45275,391.43239 266.45275,391.65649 C 266.45275,392.39729 259.84807,399.94249 255.76837,403.86209 C 249.22018,410.15359 242.51155,415.20079 234.6953,419.71659 C 232.14935,421.18749 229.94315,422.39099 229.79263,422.39099 C 229.64211,422.39099 228.18933,421.22379 226.56423,419.79719 z M 455.01411,420.53989 C 450.86791,418.29229 444.56201,414.07819 440.31806,410.71889 C 436.13107,407.40469 427.53698,398.99319 424.29237,395.03379 C 421.76379,391.94809 421.7133,391.83269 422.28539,390.44699 C 422.80649,389.18479 423.16569,388.97309 425.49065,388.55809 L 428.10905,388.09079 L 429.64819,389.97959 C 432.53032,393.51659 442.56772,403.20429 446.19647,405.95139 C 451.12386,409.68159 455.80986,412.65759 460.69292,415.15769 L 464.78909,417.25499 L 461.86372,419.82299 C 460.25475,421.23539 458.81843,422.38809 458.67192,422.38459 C 458.52537,422.38119 456.87937,421.55099 455.01411,420.53989 z M 284.61098,414.65879 C 283.32852,413.14239 282.27924,411.76439 282.27924,411.59679 C 282.27924,411.42919 283.04117,410.88959 283.9724,410.39789 C 284.90364,409.90609 287.39632,407.76899 289.51168,405.64889 C 293.74769,401.40319 296.10143,397.62719 297.96057,392.09459 C 298.58736,390.22929 299.14332,388.65669 299.19604,388.59999 C 299.24875,388.54319 300.95809,388.01419 302.99457,387.42429 L 306.69726,386.35189 L 306.69726,387.55539 C 306.69726,389.57889 304.9082,395.72879 303.31874,399.16889 C 300.06217,406.21729 294.56364,412.59089 288.33985,416.53149 L 286.94271,417.41609 L 284.61098,414.65879 z M 398.4909,415.55669 C 389.24871,408.65819 383.17587,398.70239 381.60369,387.87189 C 381.38431,386.36059 381.45118,386.17919 382.12113,386.46889 C 382.54429,386.65179 384.35061,387.20679 386.13518,387.70219 L 389.37985,388.60299 L 390.52987,392.27049 C 391.16238,394.28769 392.44931,397.25219 393.3897,398.85819 C 395.50064,402.46339 400.47081,407.79859 403.73953,409.96829 C 405.90716,411.40709 406.12403,411.68729 405.61877,412.39659 C 404.80537,413.53839 401.34897,417.41729 401.14701,417.41499 C 401.05401,417.41389 399.85876,416.57769 398.4909,415.55669 z M 218.40132,412.35539 L 215.34234,409.61729 L 220.66225,407.02159 C 229.7113,402.60649 237.63984,396.89529 244.99931,389.49069 L 249.09435,385.37059 L 253.04499,386.36359 L 256.99563,387.35659 L 253.37633,391.37529 C 245.5398,400.07649 236.59411,407.05599 226.20825,412.57189 L 221.4603,415.09359 L 218.40132,412.35539 z M 462.47404,412.74259 C 451.86302,407.18429 442.10324,399.59939 434.58765,391.07039 L 431.34165,387.38679 L 435.33816,386.38219 L 439.33468,385.37759 L 442.4861,388.75219 C 446.03979,392.55749 453.1101,398.39469 458.1794,401.70849 C 460.04467,402.92789 464.14192,405.21289 467.28443,406.78639 L 472.99806,409.64729 L 471.3541,411.16459 C 470.44991,411.99919 469.09919,413.22839 468.35245,413.89639 L 466.9948,415.11069 L 462.47404,412.74259 z M 349.00172,410.83509 C 348.83148,409.92769 348.78262,409.09479 348.89316,408.98419 C 349.00369,408.87369 349.23342,409.52579 349.40366,410.43319 C 349.5739,411.34069 349.62276,412.17359 349.51222,412.28409 C 349.40169,412.39459 349.17196,411.74259 349.00172,410.83509 z M 338.89257,411.31249 C 338.89257,410.81509 339.05549,409.89939 339.25461,409.27759 C 339.54128,408.38249 339.61665,408.33539 339.61665,409.05149 C 339.61665,409.54899 339.45373,410.46459 339.25461,411.08639 C 338.96794,411.98149 338.89257,412.02859 338.89257,411.31249 z M 277.8066,405.78509 C 276.61961,403.97879 276.02958,402.69399 276.33964,402.59059 C 276.6249,402.49549 278.07825,401.51959 279.56931,400.42199 C 282.42471,398.31999 285.9285,393.99969 286.85433,391.43929 C 287.36792,390.01909 287.57022,389.90049 289.92876,389.63699 C 291.31732,389.48189 293.21138,389.24219 294.13777,389.10429 L 295.82213,388.85359 L 294.94952,391.38989 C 293.48554,395.64499 291.23738,399.39189 288.23514,402.58019 C 285.63924,405.33709 281.10801,408.83959 280.16778,408.81599 C 279.96122,408.81079 278.89869,407.44689 277.8066,405.78509 z M 405.40985,407.25039 C 399.60638,403.34209 394.31739,396.11399 392.88221,390.12979 C 392.57753,388.85929 392.59512,388.84639 394.28878,389.09349 C 395.23208,389.23109 397.07547,389.47349 398.38519,389.63209 C 400.74496,389.91789 400.77768,389.94339 402.00268,392.44949 C 403.55666,395.62859 406.83946,399.25149 409.91413,401.18039 C 411.21676,401.99769 412.34775,402.70989 412.42743,402.76309 C 412.72369,402.96109 408.64747,408.80699 408.20685,408.81599 C 407.95483,408.82119 406.69618,408.11669 405.40985,407.25039 z M 348.33402,407.73269 C 348.31439,407.25599 348.42126,406.98889 348.57152,407.13919 C 348.72177,407.28939 348.73783,407.67939 348.60721,408.00589 C 348.46287,408.36659 348.35572,408.25939 348.33402,407.73269 z M 209.89421,404.49399 C 208.32495,402.91059 207.13135,401.55249 207.24178,401.47599 C 207.35221,401.39939 209.17216,400.64929 211.28613,399.80889 C 219.01716,396.73579 227.14152,391.66929 233.77029,385.78719 C 235.88676,383.90919 237.87729,382.18439 238.19369,381.95439 C 238.76662,381.53789 245.65222,383.83949 245.65222,384.44749 C 245.65222,384.88249 238.05157,392.10409 235.25196,394.32909 C 229.66454,398.76969 222.3789,403.11329 215.17125,406.30089 L 212.74742,407.37279 L 209.89421,404.49399 z M 468.32581,403.87009 C 464.36182,401.87369 459.20039,398.86539 456.8559,397.18489 C 452.9977,394.41939 442.80508,385.19039 442.80508,384.46249 C 442.80508,384.14069 449.05293,381.67369 449.83523,381.68649 C 450.09563,381.69079 451.11305,382.52829 452.09615,383.54769 C 454.72114,386.26959 459.71154,390.28059 463.83172,392.98009 C 467.82226,395.59459 476.31819,399.83979 479.31907,400.71859 C 480.37606,401.02809 481.24086,401.40769 481.24086,401.56199 C 481.24086,401.71639 479.95657,403.11549 478.38694,404.67119 L 475.53297,407.49979 L 468.32581,403.87009 z M 273.3519,399.21649 C 268.64173,389.25329 268.64679,389.26679 269.72211,389.53359 C 270.28663,389.67359 273.64816,389.93049 277.19216,390.10439 C 280.73616,390.27829 283.6358,390.55389 283.6358,390.71679 C 283.6358,391.42149 280.89177,395.16879 279.28432,396.65919 C 277.71881,398.11079 274.6077,400.23389 274.04607,400.23389 C 273.92882,400.23389 273.61644,399.77609 273.3519,399.21649 z M 411.94273,398.90239 C 409.30525,397.22979 406.71354,394.57359 405.3578,392.15359 L 404.31145,390.28589 L 407.84482,390.24989 C 409.78817,390.23009 413.1078,390.06149 415.22176,389.87529 C 417.33573,389.68899 419.14832,389.60159 419.24974,389.68109 C 419.44383,389.83319 414.46388,400.23389 414.19697,400.23389 C 414.11188,400.23389 413.09747,399.63469 411.94273,398.90239 z M 201.34936,396.40179 C 199.75443,394.79249 198.53983,393.40609 198.65026,393.32089 C 198.76068,393.23569 200.58064,392.60799 202.69461,391.92609 C 210.70323,389.34259 220.71684,383.67579 226.31587,378.55859 L 228.75552,376.32889 L 232.10036,378.17589 L 235.4452,380.02299 L 232.02347,383.25079 C 226.27159,388.67679 217.11557,394.44149 209.47739,397.44589 C 204.02315,399.59129 204.58166,399.66299 201.34936,396.40179 z M 479.65821,397.79899 C 470.82111,394.15589 463.60201,389.72819 456.66544,383.69669 L 452.66447,380.21789 L 455.76107,378.47839 C 457.46418,377.52169 459.04335,376.73479 459.27035,376.72959 C 459.4973,376.72449 461.12517,377.91259 462.88783,379.36979 C 469.69286,384.99589 476.85738,388.97929 485.11564,391.72819 C 487.58548,392.55039 489.69664,393.27989 489.80706,393.34949 C 490.13151,393.55379 484.25138,399.33149 483.74091,399.30989 C 483.48506,399.29909 481.64783,398.61919 479.65821,397.79899 z M 192.14942,387.65449 L 189.08955,384.57099 L 192.16155,384.01119 C 196.61988,383.19869 204.17451,380.57689 208.10411,378.47829 C 210.8804,376.99569 214.58806,374.53259 219.17642,371.12279 C 219.69662,370.73619 225.72554,374.29399 225.74665,374.99999 C 225.76162,375.50049 218.6017,380.93829 215.12971,383.06339 C 209.61335,386.43969 198.9426,390.73799 196.07704,390.73799 C 195.59978,390.73799 193.83235,389.35049 192.14942,387.65449 z M 486.9549,389.35419 C 481.23232,387.44969 475.84344,384.82109 470.86583,381.50629 C 466.4341,378.55499 462.29881,375.15859 462.70126,374.80049 C 462.82561,374.68989 464.22164,373.73099 465.80361,372.66969 L 468.67987,370.74009 L 469.87328,371.68859 C 473.21982,374.34839 478.89022,377.85579 482.78996,379.67809 C 486.82707,381.56469 496.26183,384.39729 498.56748,384.41499 C 499.37151,384.42119 498.95681,385.00769 496.32952,387.58029 C 494.11562,389.74809 492.76901,390.73019 492.03376,390.71309 C 491.44474,390.69939 489.15926,390.08789 486.9549,389.35419 z M 269.39196,386.62419 C 250.12905,384.28829 230.88126,376.21349 216.26017,364.33439 C 208.82757,358.29564 200.98691,349.65852 195.89635,341.90198 C 191.57337,335.31498 188.30515,332.44528 183.74462,331.23198 C 182.60247,330.92812 179.0227,329.9595 175.78958,329.07948 C 163.39099,325.70474 152.25709,324.24164 137.55808,324.05551 C 127.34703,323.92621 126.20228,323.72144 124.36966,321.69642 C 123.19848,320.40228 122.2056,317.7119 122.2056,315.83251 C 122.2056,313.41863 123.82912,310.3844 125.82878,309.06109 C 128.18569,307.50136 131.16542,307.30144 138.93646,308.18166 C 155.50933,310.05887 172.69281,314.02429 186.06947,319.05853 C 189.49904,320.34923 190.35137,320.5251 190.83465,320.04182 C 191.9841,318.89238 190.80811,318.00532 185.14268,315.74832 C 171.50042,310.3135 159.28099,307.26067 144.13937,305.50432 C 140.90776,305.12947 136.92097,304.82277 135.27982,304.82277 C 128.19341,304.82277 124.19358,299.18456 127.39934,293.71434 C 129.07379,290.85712 131.75103,289.68818 135.69506,290.09226 C 152.21009,291.78427 172.78865,297.71466 190.82379,305.97941 C 192.87506,306.91942 194.69921,307.54267 194.87746,307.36442 C 195.5734,306.66848 194.09331,305.49022 189.33552,302.95261 C 174.31933,294.94362 155.09226,289.07318 138.3578,287.38802 C 134.73692,287.02339 132.84565,285.92419 131.37668,283.33059 C 129.31496,279.69043 130.4629,274.75371 133.89997,272.47917 C 136.66473,270.64953 139.1919,270.59876 145.8484,272.2391 C 164.42801,276.81763 184.01704,285.69437 199.02716,296.33697 L 202.82077,299.02675 L 204.0012,298.06876 C 208.88765,294.10312 214.6553,291.10123 221.10575,289.16636 C 224.39627,288.17933 226.2613,287.93671 231.9755,287.75228 L 238.87321,287.52966 L 240.49249,285.32377 C 241.38309,284.11052 242.24705,283.13286 242.41239,283.15118 C 242.57774,283.1695 244.74785,285.50505 247.23487,288.34129 C 249.72189,291.17752 251.96021,293.43564 252.20891,293.35933 C 252.45762,293.28302 253.16298,291.55791 253.7764,289.52578 C 254.38982,287.49364 255.0175,285.83098 255.17125,285.83098 C 255.325,285.83098 258.89278,290.60899 263.09965,296.44878 C 267.30653,302.28858 270.90066,307.07044 271.08661,307.07514 C 271.27256,307.07985 272.41902,306.36935 273.6343,305.49626 C 276.56651,303.38967 282.65275,300.60034 286.57501,299.56551 C 290.93164,298.41607 301.14916,298.41972 305.3407,299.57221 C 317.19617,302.83193 326.2058,310.33309 331.36722,321.24113 C 333.06956,324.83883 334.71508,330.80503 334.72582,333.41845 C 334.73263,335.07693 334.8016,335.14371 338.35024,336.92794 C 340.33986,337.9283 341.96772,338.82158 341.96772,338.91301 C 341.96772,339.00444 340.44422,340.07046 338.58217,341.28194 C 336.72012,342.49342 335.19399,343.71194 335.19078,343.98977 C 335.18757,344.2676 336.04975,345.05678 337.10673,345.74351 C 338.16371,346.43024 339.707,347.49815 340.53626,348.11663 L 342.044,349.24115 L 337.83211,351.13118 L 333.62021,353.02122 L 332.44666,356.16617 C 329.13642,365.03709 324.23933,371.69789 317.0195,377.14929 C 310.25462,382.25719 303.99308,384.78159 295.03921,386.01099 C 288.64478,386.88889 274.38641,387.22989 269.39196,386.62419 z M 252.43501,360.01989 C 257.59862,358.86599 262.24618,357.15766 267.03921,354.65162 C 270.59808,352.79086 271.00292,352.45044 270.88279,351.4196 C 270.6893,349.75929 269.22374,349.73583 266.59871,351.35103 C 259.87746,355.48666 251.78762,357.70218 242.10817,358.05812 C 236.84296,358.25174 235.11563,358.46194 234.93566,358.93099 C 234.57795,359.86309 235.59836,360.81609 237.20742,361.05249 C 239.96904,361.45829 248.62432,360.87139 252.43501,360.01989 z M 237.45687,347.5098 C 242.84766,346.61447 248.51293,345.03237 253.42727,343.04987 C 256.55726,341.78719 257.18295,341.36683 257.18295,340.52667 C 257.18295,338.79391 255.6381,338.67771 252.17135,340.14974 C 243.97815,343.62867 235.97054,345.17385 225.52997,345.29057 C 216.03077,345.39676 216.62003,345.31289 216.79395,346.53397 C 216.98882,347.90213 218.22445,348.11422 226.37833,348.17907 C 230.67142,348.21321 234.67953,347.97108 237.45687,347.5098 z M 305.26967,323.36384 C 307.59047,321.04303 307.68327,317.68893 305.48743,315.49309 C 303.315,313.32066 299.86399,313.39522 297.59561,315.6636 C 296.50004,316.75916 296.29699,317.32823 296.29699,319.30314 C 296.29699,321.36246 296.48194,321.82902 297.83442,323.1815 C 299.17478,324.52185 299.66301,324.71893 301.64322,324.71893 C 303.56349,324.71893 304.12404,324.50947 305.26967,323.36384 z M 284.96493,317.89219 C 285.26326,316.3758 285.40184,315.02961 285.27289,314.90066 C 284.9399,314.56767 274.58745,315.52409 274.21892,315.92189 C 274.05111,316.10302 274.1173,316.33028 274.366,316.42692 C 274.6147,316.52356 276.85302,317.50591 279.34004,318.60994 C 281.82706,319.71396 283.98803,320.62446 284.1422,320.63326 C 284.29637,320.64206 284.6666,319.40858 284.96493,317.89219 z M 256.98832,313.60248 C 258.34868,311.96334 257.14356,311.55155 237.70919,307.01469 C 227.28009,304.58006 218.31112,302.58219 217.77815,302.57497 C 216.55111,302.55835 216.0154,303.86742 216.89095,304.74297 C 217.44375,305.29577 253.32779,314.11385 255.65798,314.2695 C 256.06276,314.29654 256.66141,313.99638 256.98832,313.60248 z M 401.88229,386.90639 C 401.63359,386.82799 398.78482,386.51149 395.5517,386.20309 C 385.76143,385.26929 378.34401,382.54219 371.56993,377.38599 C 364.08467,371.68839 359.08685,364.95589 355.9703,356.37191 L 354.739,352.98052 L 350.61429,351.17755 C 348.3457,350.18591 346.4922,349.27024 346.49542,349.14271 C 346.49863,349.01519 348.02476,347.91964 349.88681,346.70817 C 351.74886,345.49668 353.27236,344.27439 353.27236,343.99196 C 353.27236,343.70952 351.64535,342.46434 349.65678,341.22488 L 346.04119,338.97133 L 349.54373,337.21851 C 351.47012,336.25445 353.07843,335.43859 353.11774,335.40548 C 353.15705,335.37238 353.51517,333.45126 353.91356,331.13633 C 358.76142,302.96675 390.76069,289.31915 414.42533,305.32822 C 415.85255,306.29373 417.17519,307.07985 417.36453,307.07514 C 417.55387,307.07044 421.15077,302.28858 425.35765,296.44878 C 429.56452,290.60899 433.13231,285.83098 433.28605,285.83098 C 433.43981,285.83098 434.06748,287.49364 434.6809,289.52578 C 435.29432,291.55791 435.99969,293.28302 436.24839,293.35933 C 436.49709,293.43564 438.73541,291.17752 441.22243,288.34129 C 443.70945,285.50505 445.87956,283.1695 446.04491,283.15118 C 446.21025,283.13286 447.07233,284.10797 447.96064,285.31808 L 449.57574,287.51829 L 456.47765,287.75636 C 462.17216,287.95278 464.08861,288.20527 467.43297,289.19971 C 472.64323,290.74898 478.05639,293.44233 482.15161,296.52309 L 485.39694,298.96452 L 490.66689,295.39886 C 506.4932,284.6908 523.42624,277.07875 541.60487,272.50029 C 548.78712,270.69138 550.36904,270.58867 552.91227,271.76614 C 558.82193,274.50223 559.85476,281.40599 554.96935,285.51676 C 553.23667,286.97475 553.15292,286.99755 546.35558,287.86216 C 531.15273,289.79595 515.75541,294.53828 501.58921,301.65008 C 494.34637,305.28615 493.45597,305.84368 493.45272,306.74456 C 493.44874,307.84709 493.79954,307.77179 498.10186,305.74673 C 511.94927,299.22882 528.24807,294.09693 543.30799,291.51297 C 555.08045,289.49306 557.21563,289.59057 559.79625,292.26589 C 564.66172,297.30998 561.59133,304.30389 554.33959,304.69537 C 535.75617,305.69859 517.17925,309.79247 502.04139,316.2206 C 497.85673,317.99756 497.08851,318.51765 497.07427,319.58346 C 497.06482,320.28933 498.42133,320.75736 499.04643,320.2639 C 499.77025,319.69252 507.96552,316.94116 515.38086,314.78002 C 530.75092,310.30056 555.67015,306.51049 560.11251,307.97661 C 562.2816,308.69246 564.85752,310.95273 565.64084,312.82747 C 567.06771,316.24252 565.69546,320.71195 562.58881,322.76783 C 560.86467,323.90884 560.72368,323.92396 550.54765,324.05937 C 535.80139,324.25559 524.57935,325.73373 512.44166,329.07859 C 509.33288,329.9353 505.72114,330.9301 504.41555,331.28927 C 499.87371,332.53874 496.90873,335.1909 492.29833,342.12807 C 475.88626,366.82299 448.36379,383.37799 418.29184,386.64369 C 414.31696,387.07529 402.9922,387.25669 401.88229,386.90639 z M 453.05325,360.33529 C 453.40388,359.98469 453.55979,359.35639 453.39967,358.93919 C 453.15108,358.29139 452.36515,358.18065 448.01606,358.18065 C 439.06773,358.18065 430.53997,356.0769 422.85976,351.97472 C 418.71228,349.75945 417.48269,349.67478 417.48269,351.60444 C 417.48269,352.61264 418.12027,353.05563 423.02196,355.45322 C 428.69648,358.22882 434.60952,360.07649 440.31806,360.85789 C 444.71826,361.46019 452.23687,361.15169 453.05325,360.33529 z M 470.16232,347.83702 C 471.11177,347.63506 471.56219,347.24405 471.66335,346.53397 C 471.83816,345.30672 472.38793,345.38533 462.92735,345.28483 C 452.26911,345.17162 444.89618,343.75253 436.08194,340.11783 C 432.44385,338.6176 430.85897,338.78992 431.13386,340.65582 C 431.29703,341.76336 435.10534,343.47551 441.67461,345.39476 C 448.69695,347.44638 453.69549,348.13338 461.5708,348.12931 C 465.55003,348.12725 469.41621,347.99573 470.16232,347.83702 z M 390.28053,323.36384 C 392.60134,321.04303 392.69413,317.68893 390.4983,315.49309 C 388.32586,313.32066 384.87485,313.39522 382.60647,315.6636 C 381.51091,316.75916 381.30786,317.32823 381.30786,319.30314 C 381.30786,321.36246 381.49281,321.82902 382.84529,323.1815 C 384.18564,324.52185 384.67388,324.71893 386.65408,324.71893 C 388.57435,324.71893 389.1349,324.50947 390.28053,323.36384 z M 409.90859,318.26152 C 412.33343,317.21756 414.31739,316.22645 414.31739,316.05906 C 414.31739,315.67704 412.04206,315.33625 406.96938,314.95852 C 404.56112,314.77918 403.01276,314.83226 403.01276,315.09414 C 403.01276,315.33077 403.24638,316.68769 403.53192,318.1095 C 403.94705,320.17658 404.19624,320.64101 404.77543,320.42712 C 405.17382,320.28 407.48374,319.30548 409.90859,318.26152 z M 451.83184,309.83799 C 462.34792,307.37362 471.23965,305.06969 471.59118,304.71814 C 472.44459,303.86473 471.88876,302.55858 470.67917,302.57497 C 470.14618,302.58219 461.17721,304.58006 450.74811,307.01469 C 431.31374,311.55155 430.10862,311.96334 431.46898,313.60248 C 431.79589,313.99638 432.20923,314.31866 432.38752,314.31866 C 432.5658,314.31866 441.31575,312.30236 451.83184,309.83799 z M 184.94847,380.41339 C 183.48891,378.87959 182.34626,376.53329 182.34626,375.07009 C 182.34626,374.64999 182.96572,374.45929 184.33115,374.45929 C 191.17904,374.45929 201.57557,370.84099 208.43891,366.06909 L 211.24401,364.11879 L 214.17573,366.52189 L 217.10744,368.92499 L 214.30983,370.99609 C 208.0948,375.59709 201.42464,378.75049 194.10309,380.54899 C 186.88136,382.32299 186.76391,382.32119 184.94847,380.41339 z M 500.23265,381.83809 C 490.62149,380.26349 481.3606,376.49109 474.33106,371.28719 L 471.26488,369.01729 L 473.97212,366.76429 C 475.46112,365.52509 476.8713,364.51129 477.10594,364.51129 C 477.34054,364.51129 478.62122,365.25279 479.95191,366.15909 C 483.54547,368.60649 490.91532,371.96419 495.10383,373.06209 C 497.13265,373.59389 500.43925,374.15599 502.45184,374.31119 C 506.39056,374.61489 506.44839,374.66839 505.59892,377.21799 C 505.12733,378.63349 502.18225,382.22719 501.61046,382.08489 C 501.4744,382.05109 500.85441,381.93999 500.23265,381.83809 z M 181.2569,371.24719 C 180.92326,370.23139 180.08534,365.88299 180.08534,365.16729 C 180.08534,364.72389 180.57903,364.51129 181.60875,364.51129 C 187.08652,364.51129 195.94783,361.78899 200.91004,358.58179 L 203.7428,356.75086 L 206.42479,359.43289 L 209.10678,362.11489 L 205.78765,364.30949 C 199.65257,368.36609 191.99176,371.04849 184.95753,371.60309 C 182.1878,371.82149 181.42133,371.74779 181.2569,371.24719 z M 500.91093,371.43689 C 495.22226,370.62719 487.13881,367.45019 482.15301,364.06439 L 479.33377,362.14979 L 481.95776,359.49819 L 484.58179,356.84648 L 485.96358,357.75807 C 491.2229,361.22769 498.47189,363.76439 504.67343,364.30539 C 508.8438,364.66919 508.67776,364.42779 507.77031,368.80699 L 507.20811,371.52009 L 504.73777,371.57499 C 503.37909,371.60519 501.65703,371.54309 500.91093,371.43689 z M 179.17599,360.32849 C 179.17325,359.76899 179.04489,358.54809 178.89073,357.61542 L 178.61045,355.91973 L 181.18042,355.91973 C 185.94097,355.91973 192.72165,353.84793 196.89023,351.11969 C 198.08423,350.33824 198.10589,350.34448 199.37725,351.83569 C 201.42991,354.2433 201.56524,354.63116 200.60997,355.36869 C 198.91251,356.67925 191.55063,359.91159 188.64797,360.62079 C 187.01552,361.01959 184.21762,361.34599 182.43042,361.34599 C 179.36355,361.34599 179.18069,361.28879 179.17599,360.32849 z M 498.87641,360.40849 C 495.23071,359.45419 488.55578,356.35973 487.4363,355.10498 C 486.81455,354.40812 486.90824,354.16106 488.44906,352.43465 L 490.14697,350.53222 L 494.17237,352.56322 C 498.51539,354.75446 502.96457,355.8994 507.185,355.91188 L 509.84159,355.91973 L 509.55898,357.3328 C 509.40351,358.11 509.27636,359.33089 509.27636,360.04589 L 509.27636,361.34599 L 505.77192,361.32109 C 503.82495,361.30719 500.7604,360.90169 498.87641,360.40849 z M 178.2766,350.77798 L 178.2766,348.23257 L 181.13373,348.23257 C 184.53018,348.23257 188.03545,347.28477 191.23735,345.50061 L 193.57174,344.19985 L 194.66078,345.65098 C 195.25975,346.4491 195.88532,347.33267 196.05093,347.61448 C 196.41776,348.23867 191.26847,351.01435 187.9175,351.99872 C 186.62939,352.37711 183.93323,352.82996 181.92604,353.00505 L 178.2766,353.32339 L 178.2766,350.77798 z M 504.9806,352.92362 C 504.48319,352.82566 502.95707,352.52141 501.58921,352.2475 C 499.28541,351.78617 492.77408,348.9683 492.32216,348.23706 C 492.21323,348.06082 492.74586,347.07118 493.5058,346.03784 L 494.88746,344.15905 L 496.09045,344.97675 C 499.02762,346.97324 503.36684,348.22649 507.35457,348.23005 L 510.18073,348.23257 L 510.18073,350.71959 L 510.18073,353.20661 L 508.03285,353.15416 C 506.85152,353.12531 505.478,353.02156 504.9806,352.92362 z M 179.01879,345.1983 C 178.25901,345.0028 178.20584,344.6497 178.46489,341.52022 C 179.11568,333.65821 179.08467,333.76264 180.76856,333.76264 C 182.47886,333.76264 185.76329,335.06179 187.73111,336.51666 C 188.94829,337.41656 191.84216,341.01614 191.84216,341.63025 C 191.84216,342.23098 186.39062,344.57393 183.93784,345.02736 C 181.1772,345.53769 180.43767,345.56339 179.01879,345.1983 z M 503.80284,344.89821 C 501.15194,344.32767 497.01485,342.42811 496.76529,341.66689 C 496.68539,341.42314 497.38198,340.20628 498.31326,338.96277 C 500.30563,336.30246 504.77956,333.76264 507.47336,333.76264 L 509.14749,333.76264 L 509.43802,336.54208 C 509.59777,338.07078 509.72854,340.59255 509.72854,342.14602 C 509.72854,345.8111 509.19519,346.0588 503.80284,344.89821 z M 342.19382,307.46759 C 331.99489,302.20843 321.45545,292.11649 316.29214,282.66568 L 314.93339,280.17866 L 323.25042,249.44375 C 327.82479,232.53955 331.56746,218.26851 331.56746,217.73034 C 331.56746,216.58808 328.46922,213.61527 326.59946,212.96346 L 325.33798,212.52371 L 326.19044,208.5937 C 328.12453,199.67712 331.19261,190.13972 332.43169,189.19218 C 334.35277,187.7231 340.57525,185.4458 342.66826,185.4458 C 342.78037,185.4458 342.87209,210.07369 342.87209,240.17444 C 342.87209,288.60975 342.95075,294.93326 343.55613,295.16556 C 343.93235,295.30993 344.5428,295.17689 344.91269,294.86991 C 345.50111,294.38156 345.58521,287.50136 345.58521,239.84832 C 345.58521,188.19494 345.62603,185.39636 346.37653,185.60767 C 346.81176,185.73021 347.85644,185.96956 348.69805,186.13956 C 350.50537,186.50463 352.86477,187.53568 355.15276,188.96025 C 356.65906,189.89813 356.94375,190.43024 358.41876,195.06476 C 359.95614,199.89526 362.76825,210.81869 362.76825,211.96002 C 362.76825,212.25495 361.86892,212.93162 360.76973,213.46372 C 359.67054,213.99583 358.26613,215.09337 357.64882,215.90271 L 356.52644,217.37423 L 365.0136,248.77645 L 373.50076,280.17866 L 372.34845,282.2135 C 368.60756,288.81938 361.70912,296.72464 355.63137,301.37038 C 352.97077,303.40412 344.80272,308.46442 344.25187,308.42027 C 344.11475,308.40928 343.18862,307.98057 342.19382,307.46759 z M 413.97825,301.59887 C 411.93246,300.46363 410.7011,299.49514 410.70308,299.02287 C 410.71012,297.34043 412.5776,290.62095 414.05954,286.9458 C 417.55282,278.28261 425.50636,267.40953 429.63226,265.65675 C 432.26971,264.53629 436.46154,264.98662 438.83915,266.64584 C 441.05349,268.19113 443.4724,272.22573 442.41271,272.60633 C 442.07256,272.7285 440.03772,274.00492 437.89086,275.44282 C 429.2526,281.22846 421.54597,291.16974 418.62051,300.30092 C 418.18227,301.66878 417.69611,302.92972 417.54016,303.10301 C 417.3842,303.27629 415.78134,302.59943 413.97825,301.59887 z M 270.21726,302.2227 C 267.56055,294.62713 264.77601,289.62243 260.18659,284.19438 C 257.1726,280.62964 251.77408,276.08624 248.06546,273.99322 C 245.50492,272.54814 245.27376,272.04057 246.29013,270.09508 C 248.64776,265.58222 254.73706,263.66636 259.15362,266.04787 C 261.34167,267.22772 266.02505,272.41044 269.04361,276.99233 C 272.89337,282.8359 276.48208,291.68767 277.50832,297.87107 L 277.81801,299.737 L 274.88807,301.37551 C 271.61751,303.20451 270.62371,303.38477 270.21726,302.2227 z M 279.82503,294.26311 C 278.18316,286.50378 273.92438,277.84609 268.2615,270.75559 C 264.30811,265.80555 262.46761,264.02167 260.33326,263.07125 C 257.55861,261.83571 256.31832,261.07998 256.12795,260.50889 C 256.03201,260.22106 256.9804,258.99577 258.23549,257.78602 C 260.53063,255.5738 263.70956,254.178 266.45275,254.178 C 268.86154,254.178 272.21638,255.54559 274.29417,257.37454 C 275.95436,258.8359 276.9614,260.40856 279.14555,264.95074 C 284.05436,275.15918 286.53951,284.37247 286.25613,291.31201 L 286.12282,294.57627 L 283.36371,296.26178 L 280.6046,297.9473 L 279.82503,294.26311 z M 404.58844,295.96295 L 401.86836,294.35037 L 402.01051,290.882 C 402.19948,286.27121 403.67715,278.41956 405.11426,274.39007 C 405.75278,272.59976 407.24651,269.10012 408.43366,266.6131 C 409.62081,264.12608 410.697,261.78602 410.82519,261.41297 C 410.95339,261.03991 411.67502,259.8921 412.42881,258.86227 C 415.55099,254.59678 422.39648,253.11517 427.27197,255.64967 C 429.50225,256.80906 432.549,259.84992 432.28224,260.65023 C 432.14029,261.07606 430.93294,261.74787 427.83016,263.12752 C 424.30207,264.69628 416.96302,273.81146 413.19132,281.30913 C 411.01503,285.6353 408.68615,292.2394 408.20472,295.44983 C 408.02839,296.62572 407.75461,297.58504 407.59632,297.58166 C 407.43803,297.57829 406.08449,296.84986 404.58844,295.96295 z M 288.93114,287.98596 C 288.52098,280.88051 285.72524,271.17103 282.12604,264.35217 C 281.73223,263.60607 280.91676,261.85204 280.31391,260.45433 C 279.06635,257.56192 276.4709,254.47665 274.34292,253.3565 C 273.54764,252.93787 271.72731,251.51927 270.29774,250.20405 L 267.69853,247.81276 L 269.5227,246.07746 C 271.6136,244.08845 274.73345,242.87139 277.7249,242.87778 C 282.14044,242.88722 287.0225,246.57725 288.30251,250.87271 C 288.65895,252.06887 289.50938,254.37018 290.19235,255.98674 C 291.81079,259.81749 293.39503,265.14025 294.28104,269.724 C 295.11903,274.05929 295.65245,283.87872 295.21018,286.828 C 294.88726,288.98134 294.9929,288.87129 290.37407,291.86612 L 289.19909,292.62797 L 288.93114,287.98596 z M 395.60106,290.26796 L 392.9373,288.42017 L 393.19794,280.68194 C 393.53345,270.72088 395.13971,262.71599 398.16644,255.92123 C 398.79181,254.51733 399.63078,252.24278 400.03083,250.86666 C 401.38853,246.19632 406.0153,242.87336 411.16043,242.87336 C 413.72391,242.87336 418.38558,245.05284 419.51768,246.78063 C 420.26988,247.92864 420.25444,247.97588 418.5432,249.76333 C 417.58687,250.76225 415.88874,252.17089 414.76958,252.89364 C 410.22843,255.82632 409.65015,256.63864 405.32497,266.16092 C 401.64639,274.25962 399.85304,280.81515 399.17081,288.65714 C 399.00312,290.58458 398.73067,292.15127 398.56537,292.13867 C 398.40006,292.12606 397.06612,291.28425 395.60106,290.26796 z M 298.10274,280.5178 C 298.09957,274.43565 297.09687,267.37351 295.42905,261.68678 C 294.57979,258.79107 291.03819,249.4946 289.82111,246.96629 C 289.24505,245.7696 286.55275,242.81639 285.43235,242.15221 C 285.05259,241.92709 284.04563,240.84865 283.19465,239.75569 L 281.64743,237.76847 L 283.39681,236.29978 C 286.21726,233.93187 290.09467,233.21373 293.54402,234.42041 C 294.89203,234.89198 295.2813,235.41681 296.6275,238.5776 C 298.71354,243.47555 301.01419,251.22848 301.92776,256.43893 C 303.0159,262.64502 303.32817,272.25778 302.64171,278.4167 L 302.06615,283.58059 L 300.36001,284.93188 C 299.42163,285.67509 298.53054,286.28317 298.37981,286.28317 C 298.22906,286.28317 298.10439,283.68875 298.10274,280.5178 z M 388.018,285.00527 C 387.1076,284.34025 386.23177,283.28744 386.07172,282.66568 C 385.91167,282.04393 385.66584,277.56729 385.52543,272.7176 C 385.15797,260.02633 386.62176,251.13613 390.86639,240.27976 C 392.94299,234.96851 393.57458,234.35055 397.32165,233.96382 C 400.39437,233.64668 403.24417,234.60765 405.21797,236.6265 L 406.57335,238.01282 L 405.13219,239.97586 C 404.33956,241.05554 403.35371,242.05518 402.94142,242.19728 C 401.55549,242.67496 398.6388,246.29838 397.82597,248.5522 C 397.38277,249.78113 396.35059,252.41448 395.53223,254.40409 C 392.00709,262.97454 390.35157,271.23629 390.35157,280.25775 C 390.35157,283.57173 390.19895,286.26769 390.01243,286.24878 C 389.8259,286.22986 388.92841,285.67028 388.018,285.00527 z M 217.61673,284.67825 C 213.8273,283.82203 208.19455,281.10284 204.63936,278.41347 C 197.26831,272.83754 193.6509,265.98932 193.6509,257.61093 C 193.6509,253.48444 194.96327,249.48617 198.20619,243.73282 L 201.11196,238.5776 L 201.4008,241.80979 C 202.08238,249.43686 206.04863,256.06781 212.02781,259.57646 C 213.48515,260.43165 216.58856,262.31204 218.92427,263.75511 C 223.96367,266.8686 231.83191,270.72569 236.75255,272.4947 C 240.11857,273.70482 240.27437,273.82185 240.00436,274.93736 C 239.05192,278.87211 235.08808,283.48545 231.80725,284.47761 C 229.0043,285.32525 220.9822,285.43868 217.61673,284.67825 z M 458.24574,284.89268 C 455.68524,284.38924 452.62098,282.57271 451.20858,280.72096 C 449.91708,279.02771 448.25583,275.53978 448.24123,274.49077 C 448.23445,274.00311 449.62823,273.23451 452.64011,272.06502 C 457.68919,270.10451 466.12344,265.96759 468.79817,264.13966 C 469.79713,263.45695 472.10278,262.05837 473.92183,261.0317 C 478.45807,258.47146 480.9194,256.35604 483.01723,253.2145 C 485.39364,249.65578 486.66166,246.11283 487.03621,241.98494 L 487.34537,238.5776 L 489.85151,243.09946 C 493.89007,250.38619 494.77455,253.03155 494.79535,257.88627 C 494.83261,266.56908 490.35082,274.02205 481.60424,279.82244 C 474.58157,284.47962 465.81885,286.38167 458.24574,284.89268 z M 305.483,279.88821 C 305.62863,279.30185 305.88117,276.48205 306.0442,273.62197 C 306.39861,267.40472 305.73084,259.64079 304.23378,252.5727 C 302.4,243.9148 298.25844,232.9755 296.56894,232.32717 C 296.19668,232.18432 295.56144,231.42802 295.1573,230.64651 C 294.46905,229.31557 294.47471,229.16683 295.2467,228.29823 C 296.49205,226.89702 300.36396,225.24675 302.4015,225.24872 C 305.94023,225.25216 306.0178,225.33337 307.06825,230.13438 C 308.65026,237.36482 309.35514,242.27222 309.90477,249.88224 C 310.47858,257.82701 310.28247,263.44664 309.10786,272.7176 C 308.32731,278.87839 308.18666,279.23698 306.07079,280.46108 C 305.3173,280.89699 305.24899,280.83042 305.483,279.88821 z M 380.98187,279.53655 C 380.14669,278.83956 379.86458,277.83327 379.30641,273.56014 C 378.23721,265.37491 377.98485,257.29136 378.55308,249.43005 C 379.31959,238.8256 381.5099,226.41451 382.75414,225.62529 C 383.8175,224.95081 387.8197,225.23764 389.78352,226.12906 C 390.83895,226.60815 392.21906,227.51671 392.85043,228.14808 C 393.93287,229.23051 393.96015,229.36992 393.32854,230.59132 C 392.96014,231.30373 392.15009,232.21988 391.52845,232.6272 C 390.25849,233.45931 389.18184,235.677 386.96754,242.02182 C 383.53997,251.84313 381.95389,262.61913 382.30874,273.67421 C 382.42756,277.37601 382.40358,280.39799 382.25546,280.38971 C 382.10733,280.38144 381.53422,279.99752 380.98187,279.53655 z M 312.41205,271.81323 C 313.09928,265.0354 312.82993,244.60248 311.98287,239.25588 C 310.54857,230.20255 308.86524,223.46084 307.96793,223.17604 C 306.85103,222.82155 306.93988,222.30332 308.30114,221.23255 C 310.0477,219.8587 311.83015,219.63028 313.73832,220.53577 C 316.27101,221.73761 317.1717,223.53764 316.88317,226.82078 C 316.75204,228.31299 316.43079,234.21401 316.1693,239.93416 C 315.65443,251.19709 314.91878,258.97993 313.43384,268.87403 C 312.35803,276.0421 311.82896,277.56399 312.41205,271.81323 z M 375.69037,274.93021 C 375.26577,273.67182 373.60828,261.46991 372.93284,254.63019 C 372.55216,250.77531 372.05609,242.229 371.83046,235.6384 C 371.37653,222.37939 371.36462,222.45422 374.2105,220.67307 C 375.94268,219.58896 377.98151,219.76585 379.9556,221.17152 C 381.52054,222.28586 381.65012,222.80763 380.45604,223.18662 C 379.53886,223.47772 378.37456,227.80836 377.04758,235.86449 C 375.3752,246.01755 374.87312,261.43349 375.91153,270.74605 C 376.34741,274.65502 376.24584,276.57649 375.69037,274.93021 z M 238.64335,269.93923 C 233.63489,268.09645 224.88471,263.82281 220.55141,261.10303 C 218.55932,259.85269 216.459,258.68039 215.88405,258.4979 C 214.71207,258.12593 210.29894,254.64604 208.73177,252.8581 C 205.47982,249.14805 203.55447,242.0119 204.43556,236.93451 C 205.24373,232.27728 209.40759,225.00988 215.02315,218.45544 L 216.72534,216.46866 L 216.37971,218.02724 C 216.18961,218.88445 216.03683,221.72239 216.0402,224.33376 C 216.05146,233.07604 218.69684,238.05852 227.13922,245.23839 C 233.68156,250.80237 240.79375,255.63839 247.56549,259.12746 C 252.32353,261.57901 252.73473,261.88485 251.62965,262.15032 C 248.16017,262.98377 244.52886,266.05945 243.07754,269.39385 L 242.26083,271.27023 L 238.64335,269.93923 z M 445.28929,269.99172 C 444.61826,266.93654 440.58564,263.40763 436.25491,262.08582 C 435.57218,261.87744 436.52225,261.23296 440.22024,259.39596 C 446.46799,256.29235 453.87623,251.31915 460.44033,245.82211 C 466.19733,241.00093 468.03121,238.93544 469.99406,235.06171 C 472.07542,230.95406 472.79612,227.45425 472.52901,222.75111 C 472.4019,220.51279 472.13538,218.27448 471.93678,217.77707 C 471.29093,216.15979 472.82248,217.76554 476.49273,222.55374 C 484.45536,232.94182 486.14454,240.50832 482.31033,248.61322 C 480.87776,251.64134 477.22451,255.66448 474.5109,257.20224 C 473.36271,257.85293 470.06234,259.77857 467.17685,261.48145 C 460.9381,265.16319 454.36762,268.30038 449.2763,270.02831 L 445.57336,271.28505 L 445.28929,269.99172 z M 143.23222,265.64157 C 136.23667,264.18463 135.74798,264.00761 136.0478,263.03914 C 136.2092,262.5178 137.53828,259.28435 139.00132,255.85371 C 153.27219,222.39027 176.36375,192.25425 205.63381,168.89387 C 227.72304,151.2645 255.93811,136.78789 282.50534,129.45255 C 288.57519,127.77663 297.73503,125.68808 297.97274,125.92579 C 298.06836,126.02141 297.17085,126.66636 295.97828,127.35902 C 288.74797,131.55849 280.72904,139.82697 276.45848,147.48627 C 275.06859,149.97907 275.03449,150.00334 271.773,150.82032 C 269.96602,151.27296 265.3336,152.65875 261.47871,153.89985 C 227.60073,164.80706 198.76151,185.4028 177.02813,214.21084 C 169.49241,224.1996 161.56626,238.07872 156.82533,249.58705 C 154.51443,255.19664 154.35564,256.66502 156.05992,256.66502 C 156.99952,256.66502 157.44602,255.94439 159.70214,250.78661 C 168.79072,230.00897 179.54776,213.97172 194.69495,198.61722 C 210.96681,182.12266 229.23707,169.85968 251.07845,160.77268 C 257.21437,158.21985 272.52204,153.37045 272.97165,153.837 C 273.06807,153.93705 272.54517,155.81319 271.80964,158.00619 C 271.07411,160.19919 270.13951,164.0915 269.73274,166.65576 L 268.99317,171.31805 L 262.94045,174.16479 C 244.62868,182.77728 230.60504,193.31462 218.74019,207.3768 C 216.43196,210.11252 213.58676,213.26651 212.41754,214.38567 C 205.94301,220.58301 196.93587,231.66295 190.00047,241.96158 C 184.48122,250.15729 180.11491,254.79674 174.37552,258.56396 C 166.75606,263.56523 158.67924,265.94427 149.56282,265.87258 C 146.5784,265.84912 143.72963,265.74516 143.23222,265.64157 z M 530.07689,265.2297 C 516.31435,262.13119 508.00717,256.13639 498.68007,242.57256 C 491.13947,231.60677 483.11924,221.70735 476.94284,215.74223 C 475.5265,214.37437 472.71653,211.22037 470.69843,208.73335 C 463.29344,199.60775 453.84616,191.05846 444.08211,184.64707 C 438.51349,180.99053 429.18748,176.14279 423.46951,173.93247 C 419.01323,172.20987 419.63026,173.22454 418.37191,165.54964 C 418.06609,163.68438 417.17054,160.20951 416.3818,157.82771 L 414.94773,153.49717 L 420.17183,154.97541 C 439.28356,160.38337 458.00061,169.65708 474.23199,181.76052 C 497.93311,199.43406 517.71699,224.61042 528.47349,250.78661 C 530.55648,255.85564 531.21613,256.89111 532.36243,256.89111 C 534.50782,256.89111 533.98903,255.14446 528.14488,242.69198 C 507.24021,198.14916 466.36428,164.07282 418.7097,151.46102 L 413.38002,150.05053 L 411.60221,147.0065 C 407.16792,139.41394 399.71883,131.81109 392.3864,127.39403 C 390.89419,126.49512 389.90029,125.75912 390.17775,125.75849 C 390.45521,125.75785 392.99875,126.27876 395.83007,126.91608 C 417.82429,131.86686 442.13184,142.0516 462.47517,154.84003 C 477.98431,164.58955 490.74173,174.98596 504.36364,188.97622 C 523.3122,208.43717 538.46128,231.13268 549.00385,255.85371 C 552.81279,264.78529 552.79339,263.86848 549.19381,264.82063 C 545.04506,265.91803 534.16805,266.15078 530.07689,265.2297 z M 433.76137,257.09004 C 431.40218,253.9009 426.8395,251.46489 423.22543,251.46489 L 421.39472,251.46489 L 422.48093,250.30867 C 423.07834,249.67275 424.69081,248.51942 426.06419,247.74571 C 433.86709,243.34986 446.1149,232.33554 449.80609,226.39488 C 454.81745,218.3295 455.92748,207.89121 452.69403,199.23746 C 452.22939,197.99395 451.84914,196.91302 451.84901,196.83539 C 451.84889,196.75776 452.7909,197.36821 453.94238,198.19194 C 459.60035,202.23953 467.14574,212.21083 468.93378,218.00317 C 470.61193,223.4396 469.54124,230.61652 466.29817,235.67045 C 463.11447,240.63178 449.27041,251.24094 439.31399,256.3493 L 434.89183,258.61819 L 433.76137,257.09004 z M 248.01651,255.78407 C 242.13811,252.6906 237.77022,249.74084 231.07217,244.34106 C 224.42891,238.98546 222.98578,237.49967 221.23295,234.21103 C 218.45205,228.99353 217.91138,222.34176 219.82744,216.91923 C 221.66062,211.73124 226.98813,204.42144 232.03684,200.16689 C 236.69818,196.23877 236.68468,196.23839 235.33358,200.26024 C 234.30429,203.32417 234.15583,204.51847 234.1398,209.86382 C 234.12028,216.37205 234.76951,219.36614 237.27038,224.30138 C 240.81924,231.30471 252.01632,241.89449 261.97226,247.66348 C 263.86027,248.7575 265.77403,250.06036 266.22506,250.55874 C 267.03303,251.45154 267.01768,251.46489 265.18324,251.46489 C 262.0281,251.46489 258.38791,253.14016 255.69787,255.83019 C 254.36826,257.15981 253.14105,258.2433 252.97075,258.23797 C 252.80044,258.23263 250.57103,257.12838 248.01651,255.78407 z M 318.03316,256.66502 C 318.0248,256.41632 318.21548,254.38148 318.4569,252.14317 C 318.69831,249.90485 319.09794,242.40953 319.34496,235.48689 C 319.73199,224.64063 319.70145,222.72115 319.12408,221.60465 C 318.75558,220.89204 318.45408,219.41588 318.45408,218.32429 C 318.45408,216.63631 318.62627,216.26112 319.60582,215.81481 C 322.29244,214.5907 327.67234,216.05754 328.19762,218.15738 C 328.33432,218.70384 326.15401,227.49464 323.2451,238.12542 C 320.38689,248.5709 318.04152,256.91372 318.03316,256.66502 z M 364.75665,236.65225 C 360.94473,222.66411 359.85621,218.07594 360.2348,217.59236 C 361.68902,215.73486 366.49848,214.74271 368.85148,215.81481 C 369.79829,216.24621 370.00322,216.6525 370.00322,218.0982 C 370.00322,219.06544 369.65923,220.50803 369.2388,221.30397 C 368.60493,222.50396 368.49054,223.90951 368.56904,229.53389 C 368.6718,236.89728 369.39252,250.66255 369.81792,253.38668 C 369.96356,254.31931 370.01396,255.08077 369.92992,255.0788 C 369.84588,255.07684 367.51791,246.78489 364.75665,236.65225 z M 260.78738,243.40835 C 255.33274,239.87156 251.67086,236.81913 246.64849,231.62261 C 241.74495,226.54903 239.84974,223.65618 238.16742,218.6771 C 235.89271,211.94479 236.54014,205.32431 240.2011,197.8809 C 243.38498,191.40748 248.56693,186.08077 254.69593,182.98115 C 259.89922,180.3497 259.93292,180.36224 257.89714,184.1727 C 254.15452,191.17794 252.90002,199.52157 254.44105,207.15885 C 256.26219,216.18435 265.61936,229.2584 276.85302,238.47338 L 278.88785,240.14255 L 276.40083,240.17667 C 273.13375,240.22148 270.48321,241.34574 267.55215,243.92993 C 266.23667,245.08973 265.08918,246.03866 265.00218,246.03866 C 264.91517,246.03866 263.01851,244.85502 260.78738,243.40835 z M 420.94252,244.14762 C 418.62738,241.73223 415.01392,240.16025 411.77688,240.16025 L 409.26214,240.16025 L 411.67672,238.28437 C 415.40597,235.38713 422.38905,228.09219 425.39594,223.95246 C 429.45148,218.369 432.64953,212.5105 433.51864,209.07254 C 435.73448,200.30733 434.42519,190.55208 430.08308,183.47477 C 429.34168,182.26635 428.8466,181.16614 428.98288,181.02985 C 429.37075,180.64198 435.54671,183.84663 438.09343,185.75722 C 441.88277,188.60005 445.83155,193.41674 448.03257,197.8809 C 452.7187,207.38543 452.74003,214.69904 448.10774,223.65548 C 446.55179,226.66387 437.51345,236.06384 432.51792,239.86905 C 429.63106,242.06805 423.37503,246.06895 422.92971,246.00098 C 422.79392,245.98025 421.89968,245.14625 420.94252,244.14762 z M 275.78455,233.4635 C 267.57064,226.36107 258.87747,213.92197 257.38087,207.12961 C 255.96667,200.71123 256.87729,192.81147 259.68326,187.15601 C 263.00869,180.45355 267.08209,176.40128 273.73221,173.17992 C 275.8796,172.13971 280.92294,170.52368 282.02186,170.52368 C 282.18155,170.52368 281.28906,171.75313 280.03853,173.25579 C 277.17214,176.7001 274.32301,182.54466 273.40516,186.86312 C 272.42653,191.46757 272.77348,200.41774 274.07913,204.24937 C 277.087,213.0764 282.54387,222.29518 288.2879,228.2535 L 290.54094,230.5906 L 288.33188,230.92012 C 285.24703,231.38028 282.75461,232.53769 280.7236,234.45317 C 279.76872,235.35375 278.95039,236.09058 278.9051,236.09058 C 278.8598,236.09058 277.45556,234.9084 275.78455,233.4635 z M 407.6525,234.56637 C 405.90629,232.71506 403.08843,231.34755 400.12669,230.91409 L 397.9189,230.59098 L 399.94408,228.47979 C 404.57921,223.6478 408.67409,217.25354 412.16824,209.39141 C 415.21185,202.54305 415.81518,199.55384 415.54104,192.68077 C 415.21893,184.60525 413.24576,179.24753 408.4528,173.43416 C 407.23897,171.96192 406.30982,170.69338 406.38802,170.61517 C 406.46622,170.53698 407.80995,170.80462 409.37409,171.20993 C 419.7995,173.91142 428.10456,182.36832 430.9035,193.13296 C 431.90219,196.9739 431.87877,203.73061 430.85345,207.5706 C 429.12593,214.04046 423.5402,222.38855 415.62826,230.32522 C 412.46719,233.49617 409.70295,236.09058 409.48551,236.09058 C 409.26807,236.09058 408.44322,235.40469 407.6525,234.56637 z M 289.43863,225.12509 C 288.34183,223.8194 286.80212,221.92196 286.01706,220.90854 C 282.19026,215.96866 277.28894,205.77816 276.13764,200.36792 C 273.43457,187.66565 279.8177,173.84233 290.99061,168.20226 C 293.83481,166.76651 299.64226,165.09746 301.79371,165.09746 L 303.0761,165.09746 L 300.88898,167.81165 C 296.68729,173.0259 293.97113,180.14038 293.36509,187.51906 C 292.75168,194.9876 295.86171,206.93877 301.03315,216.98575 L 303.88436,222.52502 L 301.97997,222.52502 C 299.17557,222.52502 296.16065,223.71564 293.87871,225.72428 C 292.76977,226.70041 291.76579,227.49906 291.64763,227.49906 C 291.52948,227.49906 290.53543,226.43077 289.43863,225.12509 z M 394.72549,225.93255 C 392.31093,223.79945 390.10243,222.8406 387.07894,222.6127 L 384.48459,222.41715 L 386.4883,218.74055 C 390.54441,211.29799 393.87557,201.12162 394.81786,193.29447 C 395.85603,184.67101 393.0453,175.05604 387.33515,167.69752 L 385.31752,165.09746 L 386.59103,165.10414 C 387.29146,165.10782 389.15766,165.41566 390.73812,165.78823 C 401.30553,168.27936 409.88904,177.10903 412.30653,187.97519 C 413.35863,192.70415 413.03079,198.49956 411.44657,203.17727 C 409.818,207.98594 406.67048,214.41875 403.99835,218.39975 C 401.77102,221.71808 397.11356,227.49377 396.68216,227.47254 C 396.55781,227.46642 395.67731,226.77343 394.72549,225.93255 z M 303.09419,214.66001 C 300.44483,209.30152 298.00478,202.07736 296.94512,196.45471 C 294.90121,185.60952 297.5161,176.07213 304.42872,169.15951 C 309.92185,163.66638 315.77465,161.33543 323.47115,161.5756 L 327.65197,161.70607 L 325.11024,163.39152 C 322.23378,165.29894 319.49828,168.66908 317.77991,172.4225 C 315.76077,176.83288 314.72637,185.5845 314.66395,198.78527 C 314.63456,205.00282 314.77514,211.74618 314.97636,213.77051 L 315.34223,217.45113 L 312.48934,217.23743 C 310.08919,217.05764 309.29665,217.1988 307.49511,218.12692 L 305.35375,219.23011 L 303.09419,214.66001 z M 381.11883,218.32603 C 379.62992,217.24144 375.18037,216.71627 373.789,217.46091 C 372.94752,217.91126 372.94099,217.78788 373.52244,212.42358 C 373.91925,208.7629 374.04099,203.75018 373.88663,197.42872 C 373.37811,176.60247 370.73766,168.58825 362.5482,163.01462 L 360.29331,161.47998 L 364.82717,161.47998 C 372.82754,161.47998 378.77541,163.88699 384.12967,169.29142 C 390.38933,175.60972 393.46996,186.01447 391.72422,194.9417 C 390.8823,199.247 389.36103,204.51854 387.74667,208.72482 C 386.0905,213.04002 383.37522,218.69433 382.78357,219.05999 C 382.58803,219.18084 381.83889,218.85056 381.11883,218.32603 z M 317.32828,207.07456 C 316.9356,199.6312 317.68565,186.41687 318.87376,179.84643 C 319.95652,173.85863 321.39697,170.84069 324.63288,167.7803 C 328.13139,164.47155 332.18333,162.70609 336.74707,162.50204 C 338.74797,162.41257 340.64897,162.52001 340.97152,162.74079 C 341.42329,163.05004 341.08215,163.94704 339.48596,166.64687 C 332.67159,178.17289 327.20838,191.89954 323.87814,205.86246 C 322.46941,211.76895 322.35218,212.04601 321.16102,212.28424 C 320.47634,212.42118 319.40543,212.6614 318.78123,212.81807 L 317.64631,213.10291 L 317.32828,207.07456 z M 367.78616,212.42749 L 365.79519,211.89865 L 364.73648,207.1507 C 362.61562,197.63937 359.35379,187.98932 355.16971,178.84766 C 352.80082,173.67193 352.59442,173.27622 349.00726,167.03277 C 347.83269,164.98842 347.00119,163.1062 347.15949,162.85006 C 347.63799,162.07584 353.0069,162.32681 356.01868,163.26418 C 360.90608,164.7853 364.9308,168.15667 367.31114,172.72345 C 369.73991,177.38315 371.69603,193.62382 371.15819,204.66368 C 370.84477,211.09718 370.58794,213.05804 370.06725,212.99272 C 369.90768,212.97271 368.88119,212.71836 367.78616,212.42749 z M 333.82839,184.69174 C 333.82839,183.78214 341.70502,168.02208 342.69849,166.94388 C 342.79397,166.84026 342.87209,170.35035 342.87209,174.74408 L 342.87209,182.73269 L 341.40249,182.74437 C 340.59421,182.75079 338.55938,183.22412 336.88064,183.79621 C 335.2019,184.3683 333.82839,184.7713 333.82839,184.69174 z M 351.01143,183.81568 C 349.39487,183.23764 347.51265,182.75751 346.82872,182.7487 L 345.58521,182.73269 L 345.59959,174.93249 C 345.6127,167.81804 345.67517,167.2118 346.31015,168.03666 C 346.98454,168.91272 353.77463,182.60474 354.32695,184.20229 C 354.65077,185.13894 354.74189,185.14957 351.01143,183.81568 z M 409.55021,167.53066 C 391.90829,160.88337 371.89754,156.8274 353.6115,156.19248 L 345.58521,155.91379 L 345.58521,138.29811 L 345.58521,120.68241 L 351.57666,120.9842 C 364.70707,121.64556 370.56438,122.17342 374.21306,123.02418 C 392.45553,127.27776 407.2532,140.487 413.3596,157.96857 C 414.73585,161.90854 416.34244,168.81074 416.0528,169.53906 C 415.96879,169.75035 413.04262,168.84656 409.55021,167.53066 z M 272.33117,168.51691 C 272.33117,167.91059 272.62986,166.13011 272.99493,164.56028 C 275.5162,153.71868 280.71701,144.49391 288.58347,136.91063 C 296.17204,129.59523 305.00047,124.91088 315.1502,122.8144 C 317.7867,122.26982 336.84478,120.82535 341.85468,120.79038 L 342.87209,120.78329 L 342.87209,138.34894 L 342.87209,155.91459 L 334.61971,156.18829 C 315.83063,156.81148 294.17839,161.33075 276.50211,168.31865 C 272.50842,169.89745 272.33117,169.90588 272.33117,168.51691 z"></path></g></g></svg>